%TF.GenerationSoftware,KiCad,Pcbnew,(6.0.1)*%
%TF.CreationDate,2022-03-24T21:22:16+00:00*%
%TF.ProjectId,isopod_distro,69736f70-6f64-45f6-9469-7374726f2e6b,rev?*%
%TF.SameCoordinates,Original*%
%TF.FileFunction,Legend,Bot*%
%TF.FilePolarity,Positive*%
%FSLAX46Y46*%
G04 Gerber Fmt 4.6, Leading zero omitted, Abs format (unit mm)*
G04 Created by KiCad (PCBNEW (6.0.1)) date 2022-03-24 21:22:16*
%MOMM*%
%LPD*%
G01*
G04 APERTURE LIST*
%ADD10C,0.150000*%
%ADD11C,0.300000*%
%ADD12C,0.120000*%
G04 APERTURE END LIST*
D10*
X181250000Y-113988095D02*
X181202380Y-113892857D01*
X181202380Y-113750000D01*
X181250000Y-113607142D01*
X181345238Y-113511904D01*
X181440476Y-113464285D01*
X181630952Y-113416666D01*
X181773809Y-113416666D01*
X181964285Y-113464285D01*
X182059523Y-113511904D01*
X182154761Y-113607142D01*
X182202380Y-113750000D01*
X182202380Y-113845238D01*
X182154761Y-113988095D01*
X182107142Y-114035714D01*
X181773809Y-114035714D01*
X181773809Y-113845238D01*
X182202380Y-114464285D02*
X181202380Y-114464285D01*
X182202380Y-115035714D01*
X181202380Y-115035714D01*
X182202380Y-115511904D02*
X181202380Y-115511904D01*
X181202380Y-115750000D01*
X181250000Y-115892857D01*
X181345238Y-115988095D01*
X181440476Y-116035714D01*
X181630952Y-116083333D01*
X181773809Y-116083333D01*
X181964285Y-116035714D01*
X182059523Y-115988095D01*
X182154761Y-115892857D01*
X182202380Y-115750000D01*
X182202380Y-115511904D01*
X185130952Y-146321428D02*
X184369047Y-146321428D01*
X170107142Y-108702380D02*
X169916666Y-108702380D01*
X169821428Y-108750000D01*
X169726190Y-108845238D01*
X169678571Y-109035714D01*
X169678571Y-109369047D01*
X169726190Y-109559523D01*
X169821428Y-109654761D01*
X169916666Y-109702380D01*
X170107142Y-109702380D01*
X170202380Y-109654761D01*
X170297619Y-109559523D01*
X170345238Y-109369047D01*
X170345238Y-109035714D01*
X170297619Y-108845238D01*
X170202380Y-108750000D01*
X170107142Y-108702380D01*
X169250000Y-108702380D02*
X169250000Y-109511904D01*
X169202380Y-109607142D01*
X169154761Y-109654761D01*
X169059523Y-109702380D01*
X168869047Y-109702380D01*
X168773809Y-109654761D01*
X168726190Y-109607142D01*
X168678571Y-109511904D01*
X168678571Y-108702380D01*
X168345238Y-108702380D02*
X167773809Y-108702380D01*
X168059523Y-109702380D02*
X168059523Y-108702380D01*
X166154761Y-109702380D02*
X166726190Y-109702380D01*
X166440476Y-109702380D02*
X166440476Y-108702380D01*
X166535714Y-108845238D01*
X166630952Y-108940476D01*
X166726190Y-108988095D01*
D11*
X155595238Y-147904761D02*
X155595238Y-146571428D01*
X155595238Y-146952380D02*
X155500000Y-146761904D01*
X155404761Y-146666666D01*
X155214285Y-146571428D01*
X155023809Y-146571428D01*
X153309523Y-147904761D02*
X154452380Y-147904761D01*
X153880952Y-147904761D02*
X153880952Y-145904761D01*
X154071428Y-146190476D01*
X154261904Y-146380952D01*
X154452380Y-146476190D01*
D10*
X186630952Y-155321428D02*
X185869047Y-155321428D01*
X212107142Y-108702380D02*
X211916666Y-108702380D01*
X211821428Y-108750000D01*
X211726190Y-108845238D01*
X211678571Y-109035714D01*
X211678571Y-109369047D01*
X211726190Y-109559523D01*
X211821428Y-109654761D01*
X211916666Y-109702380D01*
X212107142Y-109702380D01*
X212202380Y-109654761D01*
X212297619Y-109559523D01*
X212345238Y-109369047D01*
X212345238Y-109035714D01*
X212297619Y-108845238D01*
X212202380Y-108750000D01*
X212107142Y-108702380D01*
X211250000Y-108702380D02*
X211250000Y-109511904D01*
X211202380Y-109607142D01*
X211154761Y-109654761D01*
X211059523Y-109702380D01*
X210869047Y-109702380D01*
X210773809Y-109654761D01*
X210726190Y-109607142D01*
X210678571Y-109511904D01*
X210678571Y-108702380D01*
X210345238Y-108702380D02*
X209773809Y-108702380D01*
X210059523Y-109702380D02*
X210059523Y-108702380D01*
X208250000Y-108702380D02*
X208440476Y-108702380D01*
X208535714Y-108750000D01*
X208583333Y-108797619D01*
X208678571Y-108940476D01*
X208726190Y-109130952D01*
X208726190Y-109511904D01*
X208678571Y-109607142D01*
X208630952Y-109654761D01*
X208535714Y-109702380D01*
X208345238Y-109702380D01*
X208250000Y-109654761D01*
X208202380Y-109607142D01*
X208154761Y-109511904D01*
X208154761Y-109273809D01*
X208202380Y-109178571D01*
X208250000Y-109130952D01*
X208345238Y-109083333D01*
X208535714Y-109083333D01*
X208630952Y-109130952D01*
X208678571Y-109178571D01*
X208726190Y-109273809D01*
X168130952Y-116452380D02*
X168130952Y-115452380D01*
X167654761Y-116452380D02*
X167654761Y-115452380D01*
X167083333Y-116452380D01*
X167083333Y-115452380D01*
X165321428Y-116452380D02*
X165892857Y-116452380D01*
X165607142Y-116452380D02*
X165607142Y-115452380D01*
X165702380Y-115595238D01*
X165797619Y-115690476D01*
X165892857Y-115738095D01*
X211880952Y-116452380D02*
X211880952Y-115452380D01*
X211404761Y-116452380D02*
X211404761Y-115452380D01*
X210833333Y-116452380D01*
X210833333Y-115452380D01*
X209166666Y-115452380D02*
X209357142Y-115452380D01*
X209452380Y-115500000D01*
X209500000Y-115547619D01*
X209595238Y-115690476D01*
X209642857Y-115880952D01*
X209642857Y-116261904D01*
X209595238Y-116357142D01*
X209547619Y-116404761D01*
X209452380Y-116452380D01*
X209261904Y-116452380D01*
X209166666Y-116404761D01*
X209119047Y-116357142D01*
X209071428Y-116261904D01*
X209071428Y-116023809D01*
X209119047Y-115928571D01*
X209166666Y-115880952D01*
X209261904Y-115833333D01*
X209452380Y-115833333D01*
X209547619Y-115880952D01*
X209595238Y-115928571D01*
X209642857Y-116023809D01*
X212107142Y-129952380D02*
X212107142Y-128952380D01*
X211630952Y-129952380D02*
X211630952Y-128952380D01*
X211059523Y-129952380D01*
X211059523Y-128952380D01*
X209297619Y-129952380D02*
X209869047Y-129952380D01*
X209583333Y-129952380D02*
X209583333Y-128952380D01*
X209678571Y-129095238D01*
X209773809Y-129190476D01*
X209869047Y-129238095D01*
X208916666Y-129047619D02*
X208869047Y-129000000D01*
X208773809Y-128952380D01*
X208535714Y-128952380D01*
X208440476Y-129000000D01*
X208392857Y-129047619D01*
X208345238Y-129142857D01*
X208345238Y-129238095D01*
X208392857Y-129380952D01*
X208964285Y-129952380D01*
X208345238Y-129952380D01*
X152952380Y-119619047D02*
X151952380Y-119619047D01*
X151952380Y-120000000D01*
X152000000Y-120095238D01*
X152047619Y-120142857D01*
X152142857Y-120190476D01*
X152285714Y-120190476D01*
X152380952Y-120142857D01*
X152428571Y-120095238D01*
X152476190Y-120000000D01*
X152476190Y-119619047D01*
X151952380Y-120523809D02*
X152952380Y-120761904D01*
X152238095Y-120952380D01*
X152952380Y-121142857D01*
X151952380Y-121380952D01*
X152952380Y-121761904D02*
X151952380Y-121761904D01*
X152666666Y-122095238D01*
X151952380Y-122428571D01*
X152952380Y-122428571D01*
X152952380Y-123428571D02*
X152952380Y-122857142D01*
X152952380Y-123142857D02*
X151952380Y-123142857D01*
X152095238Y-123047619D01*
X152190476Y-122952380D01*
X152238095Y-122857142D01*
X198630952Y-155071428D02*
X197869047Y-155071428D01*
X158357142Y-120095238D02*
X158404761Y-120047619D01*
X158452380Y-119904761D01*
X158452380Y-119809523D01*
X158404761Y-119666666D01*
X158309523Y-119571428D01*
X158214285Y-119523809D01*
X158023809Y-119476190D01*
X157880952Y-119476190D01*
X157690476Y-119523809D01*
X157595238Y-119571428D01*
X157500000Y-119666666D01*
X157452380Y-119809523D01*
X157452380Y-119904761D01*
X157500000Y-120047619D01*
X157547619Y-120095238D01*
X158452380Y-120523809D02*
X157452380Y-120523809D01*
X157928571Y-120523809D02*
X157928571Y-121095238D01*
X158452380Y-121095238D02*
X157452380Y-121095238D01*
X158166666Y-121523809D02*
X158166666Y-122000000D01*
X158452380Y-121428571D02*
X157452380Y-121761904D01*
X158452380Y-122095238D01*
X158452380Y-122428571D02*
X157452380Y-122428571D01*
X158452380Y-122904761D02*
X157452380Y-122904761D01*
X158452380Y-123476190D01*
X157452380Y-123476190D01*
X212833333Y-122202380D02*
X212642857Y-122202380D01*
X212547619Y-122250000D01*
X212452380Y-122345238D01*
X212404761Y-122535714D01*
X212404761Y-122869047D01*
X212452380Y-123059523D01*
X212547619Y-123154761D01*
X212642857Y-123202380D01*
X212833333Y-123202380D01*
X212928571Y-123154761D01*
X213023809Y-123059523D01*
X213071428Y-122869047D01*
X213071428Y-122535714D01*
X213023809Y-122345238D01*
X212928571Y-122250000D01*
X212833333Y-122202380D01*
X211976190Y-122202380D02*
X211976190Y-123011904D01*
X211928571Y-123107142D01*
X211880952Y-123154761D01*
X211785714Y-123202380D01*
X211595238Y-123202380D01*
X211500000Y-123154761D01*
X211452380Y-123107142D01*
X211404761Y-123011904D01*
X211404761Y-122202380D01*
X211071428Y-122202380D02*
X210500000Y-122202380D01*
X210785714Y-123202380D02*
X210785714Y-122202380D01*
X208880952Y-123202380D02*
X209452380Y-123202380D01*
X209166666Y-123202380D02*
X209166666Y-122202380D01*
X209261904Y-122345238D01*
X209357142Y-122440476D01*
X209452380Y-122488095D01*
X208500000Y-122297619D02*
X208452380Y-122250000D01*
X208357142Y-122202380D01*
X208119047Y-122202380D01*
X208023809Y-122250000D01*
X207976190Y-122297619D01*
X207928571Y-122392857D01*
X207928571Y-122488095D01*
X207976190Y-122630952D01*
X208547619Y-123202380D01*
X207928571Y-123202380D01*
X156714285Y-106952380D02*
X157285714Y-106952380D01*
X157000000Y-106952380D02*
X157000000Y-105952380D01*
X157095238Y-106095238D01*
X157190476Y-106190476D01*
X157285714Y-106238095D01*
X212535714Y-148071428D02*
X211773809Y-148071428D01*
X212154761Y-148452380D02*
X212154761Y-147690476D01*
X210821428Y-147452380D02*
X211297619Y-147452380D01*
X211345238Y-147928571D01*
X211297619Y-147880952D01*
X211202380Y-147833333D01*
X210964285Y-147833333D01*
X210869047Y-147880952D01*
X210821428Y-147928571D01*
X210773809Y-148023809D01*
X210773809Y-148261904D01*
X210821428Y-148357142D01*
X210869047Y-148404761D01*
X210964285Y-148452380D01*
X211202380Y-148452380D01*
X211297619Y-148404761D01*
X211345238Y-148357142D01*
X210488095Y-147452380D02*
X210154761Y-148452380D01*
X209821428Y-147452380D01*
X207761904Y-147500000D02*
X207857142Y-147452380D01*
X208000000Y-147452380D01*
X208142857Y-147500000D01*
X208238095Y-147595238D01*
X208285714Y-147690476D01*
X208333333Y-147880952D01*
X208333333Y-148023809D01*
X208285714Y-148214285D01*
X208238095Y-148309523D01*
X208142857Y-148404761D01*
X208000000Y-148452380D01*
X207904761Y-148452380D01*
X207761904Y-148404761D01*
X207714285Y-148357142D01*
X207714285Y-148023809D01*
X207904761Y-148023809D01*
X207285714Y-148452380D02*
X207285714Y-147452380D01*
X206714285Y-148452380D01*
X206714285Y-147452380D01*
X206238095Y-148452380D02*
X206238095Y-147452380D01*
X206000000Y-147452380D01*
X205857142Y-147500000D01*
X205761904Y-147595238D01*
X205714285Y-147690476D01*
X205666666Y-147880952D01*
X205666666Y-148023809D01*
X205714285Y-148214285D01*
X205761904Y-148309523D01*
X205857142Y-148404761D01*
X206000000Y-148452380D01*
X206238095Y-148452380D01*
X212011904Y-136750000D02*
X212107142Y-136702380D01*
X212250000Y-136702380D01*
X212392857Y-136750000D01*
X212488095Y-136845238D01*
X212535714Y-136940476D01*
X212583333Y-137130952D01*
X212583333Y-137273809D01*
X212535714Y-137464285D01*
X212488095Y-137559523D01*
X212392857Y-137654761D01*
X212250000Y-137702380D01*
X212154761Y-137702380D01*
X212011904Y-137654761D01*
X211964285Y-137607142D01*
X211964285Y-137273809D01*
X212154761Y-137273809D01*
X211535714Y-137702380D02*
X211535714Y-136702380D01*
X210964285Y-137702380D01*
X210964285Y-136702380D01*
X210488095Y-137702380D02*
X210488095Y-136702380D01*
X210250000Y-136702380D01*
X210107142Y-136750000D01*
X210011904Y-136845238D01*
X209964285Y-136940476D01*
X209916666Y-137130952D01*
X209916666Y-137273809D01*
X209964285Y-137464285D01*
X210011904Y-137559523D01*
X210107142Y-137654761D01*
X210250000Y-137702380D01*
X210488095Y-137702380D01*
X168607142Y-122202380D02*
X168416666Y-122202380D01*
X168321428Y-122250000D01*
X168226190Y-122345238D01*
X168178571Y-122535714D01*
X168178571Y-122869047D01*
X168226190Y-123059523D01*
X168321428Y-123154761D01*
X168416666Y-123202380D01*
X168607142Y-123202380D01*
X168702380Y-123154761D01*
X168797619Y-123059523D01*
X168845238Y-122869047D01*
X168845238Y-122535714D01*
X168797619Y-122345238D01*
X168702380Y-122250000D01*
X168607142Y-122202380D01*
X167750000Y-122202380D02*
X167750000Y-123011904D01*
X167702380Y-123107142D01*
X167654761Y-123154761D01*
X167559523Y-123202380D01*
X167369047Y-123202380D01*
X167273809Y-123154761D01*
X167226190Y-123107142D01*
X167178571Y-123011904D01*
X167178571Y-122202380D01*
X166845238Y-122202380D02*
X166273809Y-122202380D01*
X166559523Y-123202380D02*
X166559523Y-122202380D01*
X165273809Y-122202380D02*
X164607142Y-122202380D01*
X165035714Y-123202380D01*
X191630952Y-155321428D02*
X190869047Y-155321428D01*
X191250000Y-155702380D02*
X191250000Y-154940476D01*
X203630952Y-155071428D02*
X202869047Y-155071428D01*
X203250000Y-155452380D02*
X203250000Y-154690476D01*
X184702380Y-113250000D02*
X183702380Y-113250000D01*
X183702380Y-113488095D01*
X183750000Y-113630952D01*
X183845238Y-113726190D01*
X183940476Y-113773809D01*
X184130952Y-113821428D01*
X184273809Y-113821428D01*
X184464285Y-113773809D01*
X184559523Y-113726190D01*
X184654761Y-113630952D01*
X184702380Y-113488095D01*
X184702380Y-113250000D01*
X184416666Y-114202380D02*
X184416666Y-114678571D01*
X184702380Y-114107142D02*
X183702380Y-114440476D01*
X184702380Y-114773809D01*
X183702380Y-114964285D02*
X183702380Y-115535714D01*
X184702380Y-115250000D02*
X183702380Y-115250000D01*
X184416666Y-115821428D02*
X184416666Y-116297619D01*
X184702380Y-115726190D02*
X183702380Y-116059523D01*
X184702380Y-116392857D01*
D11*
X179988095Y-146544761D02*
X179988095Y-144544761D01*
X179511904Y-144544761D01*
X179226190Y-144640000D01*
X179035714Y-144830476D01*
X178940476Y-145020952D01*
X178845238Y-145401904D01*
X178845238Y-145687619D01*
X178940476Y-146068571D01*
X179035714Y-146259047D01*
X179226190Y-146449523D01*
X179511904Y-146544761D01*
X179988095Y-146544761D01*
X178083333Y-145973333D02*
X177130952Y-145973333D01*
X178273809Y-146544761D02*
X177607142Y-144544761D01*
X176940476Y-146544761D01*
X176559523Y-144544761D02*
X175892857Y-146544761D01*
X175226190Y-144544761D01*
X174559523Y-146544761D02*
X174559523Y-144544761D01*
X173607142Y-146544761D02*
X173607142Y-144544761D01*
X173130952Y-144544761D01*
X172845238Y-144640000D01*
X172654761Y-144830476D01*
X172559523Y-145020952D01*
X172464285Y-145401904D01*
X172464285Y-145687619D01*
X172559523Y-146068571D01*
X172654761Y-146259047D01*
X172845238Y-146449523D01*
X173130952Y-146544761D01*
X173607142Y-146544761D01*
X170369047Y-144544761D02*
X169226190Y-144544761D01*
X169797619Y-146544761D02*
X169797619Y-144544761D01*
X168559523Y-144544761D02*
X168559523Y-146163809D01*
X168464285Y-146354285D01*
X168369047Y-146449523D01*
X168178571Y-146544761D01*
X167797619Y-146544761D01*
X167607142Y-146449523D01*
X167511904Y-146354285D01*
X167416666Y-146163809D01*
X167416666Y-144544761D01*
X165321428Y-146544761D02*
X165988095Y-145592380D01*
X166464285Y-146544761D02*
X166464285Y-144544761D01*
X165702380Y-144544761D01*
X165511904Y-144640000D01*
X165416666Y-144735238D01*
X165321428Y-144925714D01*
X165321428Y-145211428D01*
X165416666Y-145401904D01*
X165511904Y-145497142D01*
X165702380Y-145592380D01*
X166464285Y-145592380D01*
X164464285Y-146544761D02*
X164464285Y-144544761D01*
X163321428Y-146544761D01*
X163321428Y-144544761D01*
X162369047Y-145497142D02*
X161702380Y-145497142D01*
X161416666Y-146544761D02*
X162369047Y-146544761D01*
X162369047Y-144544761D01*
X161416666Y-144544761D01*
X159416666Y-146544761D02*
X160083333Y-145592380D01*
X160559523Y-146544761D02*
X160559523Y-144544761D01*
X159797619Y-144544761D01*
X159607142Y-144640000D01*
X159511904Y-144735238D01*
X159416666Y-144925714D01*
X159416666Y-145211428D01*
X159511904Y-145401904D01*
X159607142Y-145497142D01*
X159797619Y-145592380D01*
X160559523Y-145592380D01*
X178892857Y-149764761D02*
X178892857Y-147764761D01*
X178226190Y-149193333D01*
X177559523Y-147764761D01*
X177559523Y-149764761D01*
X176702380Y-149193333D02*
X175750000Y-149193333D01*
X176892857Y-149764761D02*
X176226190Y-147764761D01*
X175559523Y-149764761D01*
X173750000Y-149764761D02*
X174416666Y-148812380D01*
X174892857Y-149764761D02*
X174892857Y-147764761D01*
X174130952Y-147764761D01*
X173940476Y-147860000D01*
X173845238Y-147955238D01*
X173750000Y-148145714D01*
X173750000Y-148431428D01*
X173845238Y-148621904D01*
X173940476Y-148717142D01*
X174130952Y-148812380D01*
X174892857Y-148812380D01*
X171750000Y-149574285D02*
X171845238Y-149669523D01*
X172130952Y-149764761D01*
X172321428Y-149764761D01*
X172607142Y-149669523D01*
X172797619Y-149479047D01*
X172892857Y-149288571D01*
X172988095Y-148907619D01*
X172988095Y-148621904D01*
X172892857Y-148240952D01*
X172797619Y-148050476D01*
X172607142Y-147860000D01*
X172321428Y-147764761D01*
X172130952Y-147764761D01*
X171845238Y-147860000D01*
X171750000Y-147955238D01*
X170892857Y-149764761D02*
X170892857Y-147764761D01*
X170892857Y-148717142D02*
X169750000Y-148717142D01*
X169750000Y-149764761D02*
X169750000Y-147764761D01*
X167369047Y-147955238D02*
X167273809Y-147860000D01*
X167083333Y-147764761D01*
X166607142Y-147764761D01*
X166416666Y-147860000D01*
X166321428Y-147955238D01*
X166226190Y-148145714D01*
X166226190Y-148336190D01*
X166321428Y-148621904D01*
X167464285Y-149764761D01*
X166226190Y-149764761D01*
X164988095Y-147764761D02*
X164797619Y-147764761D01*
X164607142Y-147860000D01*
X164511904Y-147955238D01*
X164416666Y-148145714D01*
X164321428Y-148526666D01*
X164321428Y-149002857D01*
X164416666Y-149383809D01*
X164511904Y-149574285D01*
X164607142Y-149669523D01*
X164797619Y-149764761D01*
X164988095Y-149764761D01*
X165178571Y-149669523D01*
X165273809Y-149574285D01*
X165369047Y-149383809D01*
X165464285Y-149002857D01*
X165464285Y-148526666D01*
X165369047Y-148145714D01*
X165273809Y-147955238D01*
X165178571Y-147860000D01*
X164988095Y-147764761D01*
X163559523Y-147955238D02*
X163464285Y-147860000D01*
X163273809Y-147764761D01*
X162797619Y-147764761D01*
X162607142Y-147860000D01*
X162511904Y-147955238D01*
X162416666Y-148145714D01*
X162416666Y-148336190D01*
X162511904Y-148621904D01*
X163654761Y-149764761D01*
X162416666Y-149764761D01*
X161654761Y-147955238D02*
X161559523Y-147860000D01*
X161369047Y-147764761D01*
X160892857Y-147764761D01*
X160702380Y-147860000D01*
X160607142Y-147955238D01*
X160511904Y-148145714D01*
X160511904Y-148336190D01*
X160607142Y-148621904D01*
X161750000Y-149764761D01*
X160511904Y-149764761D01*
D10*
X186821428Y-113464285D02*
X186821428Y-114226190D01*
X187202380Y-113845238D02*
X186440476Y-113845238D01*
X186202380Y-115178571D02*
X186202380Y-114702380D01*
X186678571Y-114654761D01*
X186630952Y-114702380D01*
X186583333Y-114797619D01*
X186583333Y-115035714D01*
X186630952Y-115130952D01*
X186678571Y-115178571D01*
X186773809Y-115226190D01*
X187011904Y-115226190D01*
X187107142Y-115178571D01*
X187154761Y-115130952D01*
X187202380Y-115035714D01*
X187202380Y-114797619D01*
X187154761Y-114702380D01*
X187107142Y-114654761D01*
X186202380Y-115511904D02*
X187202380Y-115845238D01*
X186202380Y-116178571D01*
X209071428Y-137321428D02*
X208309523Y-137321428D01*
X208690476Y-137702380D02*
X208690476Y-136940476D01*
X207500000Y-137178571D02*
X207357142Y-137226190D01*
X207309523Y-137273809D01*
X207261904Y-137369047D01*
X207261904Y-137511904D01*
X207309523Y-137607142D01*
X207357142Y-137654761D01*
X207452380Y-137702380D01*
X207833333Y-137702380D01*
X207833333Y-136702380D01*
X207500000Y-136702380D01*
X207404761Y-136750000D01*
X207357142Y-136797619D01*
X207309523Y-136892857D01*
X207309523Y-136988095D01*
X207357142Y-137083333D01*
X207404761Y-137130952D01*
X207500000Y-137178571D01*
X207833333Y-137178571D01*
X206880952Y-137416666D02*
X206404761Y-137416666D01*
X206976190Y-137702380D02*
X206642857Y-136702380D01*
X206309523Y-137702380D01*
X206119047Y-136702380D02*
X205547619Y-136702380D01*
X205833333Y-137702380D02*
X205833333Y-136702380D01*
X205357142Y-136702380D02*
X204785714Y-136702380D01*
X205071428Y-137702380D02*
X205071428Y-136702380D01*
X185130952Y-138571428D02*
X184369047Y-138571428D01*
X184750000Y-138952380D02*
X184750000Y-138190476D01*
X167880952Y-129952380D02*
X167880952Y-128952380D01*
X167404761Y-129952380D02*
X167404761Y-128952380D01*
X166833333Y-129952380D01*
X166833333Y-128952380D01*
X165690476Y-128952380D02*
X165023809Y-128952380D01*
X165452380Y-129952380D01*
D12*
%TO.C,JP1*%
X153700000Y-119300000D02*
X154300000Y-119300000D01*
X153800000Y-121800000D02*
X156600000Y-121800000D01*
X156600000Y-119800000D02*
X153800000Y-119800000D01*
X157250000Y-121100000D02*
X157250000Y-120500000D01*
X154000000Y-119600000D02*
X153700000Y-119300000D01*
X153150000Y-120500000D02*
X153150000Y-121100000D01*
X154000000Y-119600000D02*
X154300000Y-119300000D01*
X153850000Y-119800000D02*
G75*
G03*
X153150000Y-120500000I-1J-699999D01*
G01*
X157250000Y-120500000D02*
G75*
G03*
X156550000Y-119800000I-699999J1D01*
G01*
X153150000Y-121100000D02*
G75*
G03*
X153850000Y-121800000I699999J-1D01*
G01*
X156550000Y-121800000D02*
G75*
G03*
X157250000Y-121100000I1J699999D01*
G01*
%TD*%
M02*
