%TF.GenerationSoftware,KiCad,Pcbnew,(6.0.1)*%
%TF.CreationDate,2022-03-24T21:22:16+00:00*%
%TF.ProjectId,isopod_distro,69736f70-6f64-45f6-9469-7374726f2e6b,rev?*%
%TF.SameCoordinates,Original*%
%TF.FileFunction,Copper,L4,Bot*%
%TF.FilePolarity,Positive*%
%FSLAX46Y46*%
G04 Gerber Fmt 4.6, Leading zero omitted, Abs format (unit mm)*
G04 Created by KiCad (PCBNEW (6.0.1)) date 2022-03-24 21:22:16*
%MOMM*%
%LPD*%
G01*
G04 APERTURE LIST*
G04 Aperture macros list*
%AMRoundRect*
0 Rectangle with rounded corners*
0 $1 Rounding radius*
0 $2 $3 $4 $5 $6 $7 $8 $9 X,Y pos of 4 corners*
0 Add a 4 corners polygon primitive as box body*
4,1,4,$2,$3,$4,$5,$6,$7,$8,$9,$2,$3,0*
0 Add four circle primitives for the rounded corners*
1,1,$1+$1,$2,$3*
1,1,$1+$1,$4,$5*
1,1,$1+$1,$6,$7*
1,1,$1+$1,$8,$9*
0 Add four rect primitives between the rounded corners*
20,1,$1+$1,$2,$3,$4,$5,0*
20,1,$1+$1,$4,$5,$6,$7,0*
20,1,$1+$1,$6,$7,$8,$9,0*
20,1,$1+$1,$8,$9,$2,$3,0*%
%AMFreePoly0*
4,1,22,0.550000,-0.750000,0.000000,-0.750000,0.000000,-0.745033,-0.079941,-0.743568,-0.215256,-0.701293,-0.333266,-0.622738,-0.424486,-0.514219,-0.481581,-0.384460,-0.499164,-0.250000,-0.500000,-0.250000,-0.500000,0.250000,-0.499164,0.250000,-0.499963,0.256109,-0.478152,0.396186,-0.417904,0.524511,-0.324060,0.630769,-0.204165,0.706417,-0.067858,0.745374,0.000000,0.744959,0.000000,0.750000,
0.550000,0.750000,0.550000,-0.750000,0.550000,-0.750000,$1*%
%AMFreePoly1*
4,1,20,0.000000,0.744959,0.073905,0.744508,0.209726,0.703889,0.328688,0.626782,0.421226,0.519385,0.479903,0.390333,0.500000,0.250000,0.500000,-0.250000,0.499851,-0.262216,0.476331,-0.402017,0.414519,-0.529596,0.319384,-0.634700,0.198574,-0.708877,0.061801,-0.746166,0.000000,-0.745033,0.000000,-0.750000,-0.550000,-0.750000,-0.550000,0.750000,0.000000,0.750000,0.000000,0.744959,
0.000000,0.744959,$1*%
G04 Aperture macros list end*
%TA.AperFunction,ComponentPad*%
%ADD10RoundRect,0.250001X-1.099999X-1.399999X1.099999X-1.399999X1.099999X1.399999X-1.099999X1.399999X0*%
%TD*%
%TA.AperFunction,ComponentPad*%
%ADD11O,2.700000X3.300000*%
%TD*%
%TA.AperFunction,ComponentPad*%
%ADD12RoundRect,0.250000X-0.620000X-0.845000X0.620000X-0.845000X0.620000X0.845000X-0.620000X0.845000X0*%
%TD*%
%TA.AperFunction,ComponentPad*%
%ADD13O,1.740000X2.190000*%
%TD*%
%TA.AperFunction,ComponentPad*%
%ADD14R,1.700000X1.700000*%
%TD*%
%TA.AperFunction,ComponentPad*%
%ADD15O,1.700000X1.700000*%
%TD*%
%TA.AperFunction,ComponentPad*%
%ADD16R,3.800000X3.800000*%
%TD*%
%TA.AperFunction,ComponentPad*%
%ADD17C,3.800000*%
%TD*%
%TA.AperFunction,ComponentPad*%
%ADD18C,2.000000*%
%TD*%
%TA.AperFunction,WasherPad*%
%ADD19C,3.500000*%
%TD*%
%TA.AperFunction,ComponentPad*%
%ADD20RoundRect,0.250000X-0.725000X0.600000X-0.725000X-0.600000X0.725000X-0.600000X0.725000X0.600000X0*%
%TD*%
%TA.AperFunction,ComponentPad*%
%ADD21O,1.950000X1.700000*%
%TD*%
%TA.AperFunction,SMDPad,CuDef*%
%ADD22FreePoly0,0.000000*%
%TD*%
%TA.AperFunction,SMDPad,CuDef*%
%ADD23R,1.000000X1.500000*%
%TD*%
%TA.AperFunction,SMDPad,CuDef*%
%ADD24FreePoly1,0.000000*%
%TD*%
%TA.AperFunction,ViaPad*%
%ADD25C,1.000000*%
%TD*%
%TA.AperFunction,ViaPad*%
%ADD26C,0.460000*%
%TD*%
%TA.AperFunction,ViaPad*%
%ADD27C,0.800000*%
%TD*%
%TA.AperFunction,Conductor*%
%ADD28C,1.000000*%
%TD*%
%TA.AperFunction,Conductor*%
%ADD29C,0.200000*%
%TD*%
%TA.AperFunction,Conductor*%
%ADD30C,2.000000*%
%TD*%
G04 APERTURE END LIST*
%TO.C,JP1*%
G36*
X154800000Y-121100000D02*
G01*
X154300000Y-121100000D01*
X154300000Y-120500000D01*
X154800000Y-120500000D01*
X154800000Y-121100000D01*
G37*
%TD*%
D10*
%TO.P,J8,1,Pin_1*%
%TO.N,Net-(J1-Pad2)*%
X207000000Y-139850000D03*
D11*
%TO.P,J8,2,Pin_2*%
%TO.N,GND*%
X211200000Y-139850000D03*
%TO.P,J8,3,Pin_3*%
X207000000Y-145350000D03*
%TO.P,J8,4,Pin_4*%
%TO.N,+5V*%
X211200000Y-145350000D03*
%TD*%
D12*
%TO.P,J23,1,Pin_1*%
%TO.N,/LED_GND*%
X164230000Y-131750000D03*
D13*
%TO.P,J23,2,Pin_2*%
%TO.N,Net-(J18-Pad2)*%
X166770000Y-131750000D03*
%TO.P,J23,3,Pin_3*%
%TO.N,+5V*%
X169310000Y-131750000D03*
%TD*%
D12*
%TO.P,J15,1,Pin_1*%
%TO.N,/LED_GND*%
X207980000Y-118270000D03*
D13*
%TO.P,J15,2,Pin_2*%
%TO.N,Net-(J15-Pad2)*%
X210520000Y-118270000D03*
%TO.P,J15,3,Pin_3*%
%TO.N,+5V*%
X213060000Y-118270000D03*
%TD*%
D14*
%TO.P,J30,1,3V3*%
%TO.N,+3V3*%
X158375000Y-104775000D03*
D15*
%TO.P,J30,2,5V*%
%TO.N,+5V*%
X158375000Y-102235000D03*
%TO.P,J30,3,SDA/GPIO2*%
%TO.N,/I2C_SDA*%
X160915000Y-104775000D03*
%TO.P,J30,4,5V*%
%TO.N,+5V*%
X160915000Y-102235000D03*
%TO.P,J30,5,SCL/GPIO3*%
%TO.N,/I2C_SCL*%
X163455000Y-104775000D03*
%TO.P,J30,6,GND*%
%TO.N,GND*%
X163455000Y-102235000D03*
%TO.P,J30,7,GCLK0/GPIO4*%
%TO.N,unconnected-(J30-Pad7)*%
X165995000Y-104775000D03*
%TO.P,J30,8,GPIO14/TXD*%
%TO.N,/GPS_RXD*%
X165995000Y-102235000D03*
%TO.P,J30,9,GND*%
%TO.N,GND*%
X168535000Y-104775000D03*
%TO.P,J30,10,GPIO15/RXD*%
%TO.N,/GPS_TXD*%
X168535000Y-102235000D03*
%TO.P,J30,11,GPIO17*%
%TO.N,unconnected-(J30-Pad11)*%
X171075000Y-104775000D03*
%TO.P,J30,12,GPIO18/PWM0*%
%TO.N,unconnected-(J30-Pad12)*%
X171075000Y-102235000D03*
%TO.P,J30,13,GPIO27*%
%TO.N,unconnected-(J30-Pad13)*%
X173615000Y-104775000D03*
%TO.P,J30,14,GND*%
%TO.N,GND*%
X173615000Y-102235000D03*
%TO.P,J30,15,GPIO22*%
%TO.N,unconnected-(J30-Pad15)*%
X176155000Y-104775000D03*
%TO.P,J30,16,GPIO23*%
%TO.N,unconnected-(J30-Pad16)*%
X176155000Y-102235000D03*
%TO.P,J30,17,3V3*%
%TO.N,+3V3*%
X178695000Y-104775000D03*
%TO.P,J30,18,GPIO24*%
%TO.N,unconnected-(J30-Pad18)*%
X178695000Y-102235000D03*
%TO.P,J30,19,MOSI0/GPIO10*%
%TO.N,unconnected-(J30-Pad19)*%
X181235000Y-104775000D03*
%TO.P,J30,20,GND*%
%TO.N,GND*%
X181235000Y-102235000D03*
%TO.P,J30,21,MISO0/GPIO9*%
%TO.N,unconnected-(J30-Pad21)*%
X183775000Y-104775000D03*
%TO.P,J30,22,GPIO25*%
%TO.N,unconnected-(J30-Pad22)*%
X183775000Y-102235000D03*
%TO.P,J30,23,SCLK0/GPIO11*%
%TO.N,unconnected-(J30-Pad23)*%
X186315000Y-104775000D03*
%TO.P,J30,24,~{CE0}/GPIO8*%
%TO.N,unconnected-(J30-Pad24)*%
X186315000Y-102235000D03*
%TO.P,J30,25,GND*%
%TO.N,GND*%
X188855000Y-104775000D03*
%TO.P,J30,26,~{CE1}/GPIO7*%
%TO.N,unconnected-(J30-Pad26)*%
X188855000Y-102235000D03*
%TO.P,J30,27,ID_SD/GPIO0*%
%TO.N,unconnected-(J30-Pad27)*%
X191395000Y-104775000D03*
%TO.P,J30,28,ID_SC/GPIO1*%
%TO.N,unconnected-(J30-Pad28)*%
X191395000Y-102235000D03*
%TO.P,J30,29,GCLK1/GPIO5*%
%TO.N,/LED_PWR_EN*%
X193935000Y-104775000D03*
%TO.P,J30,30,GND*%
%TO.N,GND*%
X193935000Y-102235000D03*
%TO.P,J30,31,GCLK2/GPIO6*%
%TO.N,unconnected-(J30-Pad31)*%
X196475000Y-104775000D03*
%TO.P,J30,32,PWM0/GPIO12*%
%TO.N,/LED_DATA_LV_1*%
X196475000Y-102235000D03*
%TO.P,J30,33,PWM1/GPIO13*%
%TO.N,/LED_DATA_LV_2*%
X199015000Y-104775000D03*
%TO.P,J30,34,GND*%
%TO.N,GND*%
X199015000Y-102235000D03*
%TO.P,J30,35,GPIO19/MISO1*%
%TO.N,unconnected-(J30-Pad35)*%
X201555000Y-104775000D03*
%TO.P,J30,36,GPIO16*%
%TO.N,unconnected-(J30-Pad36)*%
X201555000Y-102235000D03*
%TO.P,J30,37,GPIO26*%
%TO.N,unconnected-(J30-Pad37)*%
X204095000Y-104775000D03*
%TO.P,J30,38,GPIO20/MOSI1*%
%TO.N,unconnected-(J30-Pad38)*%
X204095000Y-102235000D03*
%TO.P,J30,39,GND*%
%TO.N,GND*%
X206635000Y-104775000D03*
%TO.P,J30,40,GPIO21/SCLK1*%
%TO.N,unconnected-(J30-Pad40)*%
X206635000Y-102235000D03*
%TD*%
D12*
%TO.P,J11,1,Pin_1*%
%TO.N,/LED_GND*%
X172980000Y-118250000D03*
D13*
%TO.P,J11,2,Pin_2*%
%TO.N,Net-(J11-Pad2)*%
X175520000Y-118250000D03*
%TO.P,J11,3,Pin_3*%
%TO.N,+5V*%
X178060000Y-118250000D03*
%TD*%
D16*
%TO.P,J16,1,Pin_1*%
%TO.N,Net-(C6-Pad2)*%
X186200000Y-152400000D03*
D17*
%TO.P,J16,2,Pin_2*%
%TO.N,Net-(J1-Pad2)*%
X191200000Y-152400000D03*
%TD*%
D12*
%TO.P,J14,1,Pin_1*%
%TO.N,/LED_GND*%
X199230000Y-118250000D03*
D13*
%TO.P,J14,2,Pin_2*%
%TO.N,Net-(J14-Pad2)*%
X201770000Y-118250000D03*
%TO.P,J14,3,Pin_3*%
%TO.N,+5V*%
X204310000Y-118250000D03*
%TD*%
D12*
%TO.P,J13,1,Pin_1*%
%TO.N,/LED_GND*%
X190480000Y-118270000D03*
D13*
%TO.P,J13,2,Pin_2*%
%TO.N,Net-(J13-Pad2)*%
X193020000Y-118270000D03*
%TO.P,J13,3,Pin_3*%
%TO.N,+5V*%
X195560000Y-118270000D03*
%TD*%
D16*
%TO.P,J1,1,Pin_1*%
%TO.N,GND*%
X198200000Y-152300000D03*
D17*
%TO.P,J1,2,Pin_2*%
%TO.N,Net-(J1-Pad2)*%
X203200000Y-152300000D03*
%TD*%
D12*
%TO.P,J19,1,Pin_1*%
%TO.N,/LED_GND*%
X181670000Y-124960000D03*
D13*
%TO.P,J19,2,Pin_2*%
%TO.N,Net-(J19-Pad2)*%
X184210000Y-124960000D03*
%TO.P,J19,3,Pin_3*%
%TO.N,+5V*%
X186750000Y-124960000D03*
%TD*%
D12*
%TO.P,J2,1,Pin_1*%
%TO.N,/LED_GND*%
X164230000Y-111480000D03*
D13*
%TO.P,J2,2,Pin_2*%
%TO.N,/LED_DATA_1*%
X166770000Y-111480000D03*
%TO.P,J2,3,Pin_3*%
%TO.N,+5V*%
X169310000Y-111480000D03*
%TD*%
D12*
%TO.P,J25,1,Pin_1*%
%TO.N,/LED_GND*%
X181670000Y-131750000D03*
D13*
%TO.P,J25,2,Pin_2*%
%TO.N,Net-(J20-Pad2)*%
X184210000Y-131750000D03*
%TO.P,J25,3,Pin_3*%
%TO.N,+5V*%
X186750000Y-131750000D03*
%TD*%
D18*
%TO.P,U2,1,SDA*%
%TO.N,unconnected-(U2-Pad1)*%
X160000000Y-136500000D03*
%TO.P,U2,2,SCL*%
%TO.N,unconnected-(U2-Pad2)*%
X160000000Y-133960000D03*
%TO.P,U2,3,TXD*%
%TO.N,/GPS_TXD*%
X160000000Y-131420000D03*
%TO.P,U2,4,RXD*%
%TO.N,/GPS_RXD*%
X160000000Y-128880000D03*
%TO.P,U2,5,GND*%
%TO.N,GND*%
X160000000Y-126340000D03*
%TO.P,U2,6,VCC*%
%TO.N,+3V3*%
X160000000Y-123800000D03*
%TD*%
D19*
%TO.P,U3,*%
%TO.N,*%
X159880000Y-153400000D03*
X180200000Y-153400000D03*
X180200000Y-140700000D03*
X159880000Y-140700000D03*
D18*
%TO.P,U3,1,VIN*%
%TO.N,+3V3*%
X176390000Y-140700000D03*
%TO.P,U3,2,1V8*%
%TO.N,unconnected-(U3-Pad2)*%
X173850000Y-140700000D03*
%TO.P,U3,3,GND*%
%TO.N,GND*%
X171310000Y-140700000D03*
%TO.P,U3,4,SCL/SCK*%
%TO.N,/I2C_SCL*%
X168770000Y-140700000D03*
%TO.P,U3,5,SDA/MOSI*%
%TO.N,/I2C_SDA*%
X166230000Y-140700000D03*
%TO.P,U3,6,INT*%
%TO.N,unconnected-(U3-Pad6)*%
X163690000Y-140700000D03*
%TO.P,U3,7,FS*%
%TO.N,unconnected-(U3-Pad7)*%
X176390000Y-153400000D03*
%TO.P,U3,8,AD*%
%TO.N,unconnected-(U3-Pad8)*%
X173850000Y-153400000D03*
%TO.P,U3,9,AC*%
%TO.N,unconnected-(U3-Pad9)*%
X171310000Y-153400000D03*
%TO.P,U3,10,G*%
%TO.N,GND*%
X168770000Y-153400000D03*
%TO.P,U3,11,SDO/MISO*%
%TO.N,unconnected-(U3-Pad11)*%
X166230000Y-153400000D03*
%TO.P,U3,12,CS*%
%TO.N,unconnected-(U3-Pad12)*%
X163690000Y-153400000D03*
%TD*%
D12*
%TO.P,J4,1,Pin_1*%
%TO.N,/LED_GND*%
X181730000Y-111480000D03*
D13*
%TO.P,J4,2,Pin_2*%
%TO.N,Net-(J11-Pad2)*%
X184270000Y-111480000D03*
%TO.P,J4,3,Pin_3*%
%TO.N,+5V*%
X186810000Y-111480000D03*
%TD*%
D20*
%TO.P,J29,1,Pin_1*%
%TO.N,unconnected-(J29-Pad1)*%
X186900000Y-138700000D03*
D21*
%TO.P,J29,2,Pin_2*%
%TO.N,Net-(J29-Pad2)*%
X186900000Y-141200000D03*
%TO.P,J29,3,Pin_3*%
%TO.N,Net-(J29-Pad3)*%
X186900000Y-143700000D03*
%TO.P,J29,4,Pin_4*%
%TO.N,unconnected-(J29-Pad4)*%
X186900000Y-146200000D03*
%TD*%
D12*
%TO.P,J17,1,Pin_1*%
%TO.N,/LED_GND*%
X164230000Y-124980000D03*
D13*
%TO.P,J17,2,Pin_2*%
%TO.N,Net-(J17-Pad2)*%
X166770000Y-124980000D03*
%TO.P,J17,3,Pin_3*%
%TO.N,+5V*%
X169310000Y-124980000D03*
%TD*%
D12*
%TO.P,J27,1,Pin_1*%
%TO.N,/LED_GND*%
X199170000Y-131730000D03*
D13*
%TO.P,J27,2,Pin_2*%
%TO.N,Net-(J22-Pad2)*%
X201710000Y-131730000D03*
%TO.P,J27,3,Pin_3*%
%TO.N,+5V*%
X204250000Y-131730000D03*
%TD*%
D12*
%TO.P,J6,1,Pin_1*%
%TO.N,/LED_GND*%
X199230000Y-111480000D03*
D13*
%TO.P,J6,2,Pin_2*%
%TO.N,Net-(J13-Pad2)*%
X201770000Y-111480000D03*
%TO.P,J6,3,Pin_3*%
%TO.N,+5V*%
X204310000Y-111480000D03*
%TD*%
D12*
%TO.P,J20,1,Pin_1*%
%TO.N,/LED_GND*%
X190420000Y-124960000D03*
D13*
%TO.P,J20,2,Pin_2*%
%TO.N,Net-(J20-Pad2)*%
X192960000Y-124960000D03*
%TO.P,J20,3,Pin_3*%
%TO.N,+5V*%
X195500000Y-124960000D03*
%TD*%
D12*
%TO.P,J12,1,Pin_1*%
%TO.N,/LED_GND*%
X181730000Y-118250000D03*
D13*
%TO.P,J12,2,Pin_2*%
%TO.N,Net-(J12-Pad2)*%
X184270000Y-118250000D03*
%TO.P,J12,3,Pin_3*%
%TO.N,+5V*%
X186810000Y-118250000D03*
%TD*%
D12*
%TO.P,J5,1,Pin_1*%
%TO.N,/LED_GND*%
X190480000Y-111500000D03*
D13*
%TO.P,J5,2,Pin_2*%
%TO.N,Net-(J12-Pad2)*%
X193020000Y-111500000D03*
%TO.P,J5,3,Pin_3*%
%TO.N,+5V*%
X195560000Y-111500000D03*
%TD*%
D12*
%TO.P,J10,1,Pin_1*%
%TO.N,/LED_GND*%
X164230000Y-118250000D03*
D13*
%TO.P,J10,2,Pin_2*%
%TO.N,Net-(J10-Pad2)*%
X166770000Y-118250000D03*
%TO.P,J10,3,Pin_3*%
%TO.N,+5V*%
X169310000Y-118250000D03*
%TD*%
D12*
%TO.P,J18,1,Pin_1*%
%TO.N,/LED_GND*%
X172920000Y-124960000D03*
D13*
%TO.P,J18,2,Pin_2*%
%TO.N,Net-(J18-Pad2)*%
X175460000Y-124960000D03*
%TO.P,J18,3,Pin_3*%
%TO.N,+5V*%
X178000000Y-124960000D03*
%TD*%
D12*
%TO.P,J3,1,Pin_1*%
%TO.N,/LED_GND*%
X172980000Y-111500000D03*
D13*
%TO.P,J3,2,Pin_2*%
%TO.N,Net-(J10-Pad2)*%
X175520000Y-111500000D03*
%TO.P,J3,3,Pin_3*%
%TO.N,+5V*%
X178060000Y-111500000D03*
%TD*%
D12*
%TO.P,J21,1,Pin_1*%
%TO.N,/LED_GND*%
X199170000Y-124960000D03*
D13*
%TO.P,J21,2,Pin_2*%
%TO.N,Net-(J21-Pad2)*%
X201710000Y-124960000D03*
%TO.P,J21,3,Pin_3*%
%TO.N,+5V*%
X204250000Y-124960000D03*
%TD*%
D12*
%TO.P,J22,1,Pin_1*%
%TO.N,/LED_GND*%
X207920000Y-124960000D03*
D13*
%TO.P,J22,2,Pin_2*%
%TO.N,Net-(J22-Pad2)*%
X210460000Y-124960000D03*
%TO.P,J22,3,Pin_3*%
%TO.N,+5V*%
X213000000Y-124960000D03*
%TD*%
D12*
%TO.P,J24,1,Pin_1*%
%TO.N,/LED_GND*%
X172920000Y-131750000D03*
D13*
%TO.P,J24,2,Pin_2*%
%TO.N,Net-(J19-Pad2)*%
X175460000Y-131750000D03*
%TO.P,J24,3,Pin_3*%
%TO.N,+5V*%
X178000000Y-131750000D03*
%TD*%
D12*
%TO.P,J7,1,Pin_1*%
%TO.N,/LED_GND*%
X207980000Y-111500000D03*
D13*
%TO.P,J7,2,Pin_2*%
%TO.N,Net-(J14-Pad2)*%
X210520000Y-111500000D03*
%TO.P,J7,3,Pin_3*%
%TO.N,+5V*%
X213060000Y-111500000D03*
%TD*%
D12*
%TO.P,J26,1,Pin_1*%
%TO.N,/LED_GND*%
X190420000Y-131730000D03*
D13*
%TO.P,J26,2,Pin_2*%
%TO.N,Net-(J21-Pad2)*%
X192960000Y-131730000D03*
%TO.P,J26,3,Pin_3*%
%TO.N,+5V*%
X195500000Y-131730000D03*
%TD*%
D12*
%TO.P,J28,1,Pin_1*%
%TO.N,/LED_GND*%
X207920000Y-131750000D03*
D13*
%TO.P,J28,2,Pin_2*%
%TO.N,unconnected-(J28-Pad2)*%
X210460000Y-131750000D03*
%TO.P,J28,3,Pin_3*%
%TO.N,+5V*%
X213000000Y-131750000D03*
%TD*%
D22*
%TO.P,JP1,1,A*%
%TO.N,/LED_DATA_2*%
X153900000Y-120800000D03*
D23*
%TO.P,JP1,2,C*%
%TO.N,Net-(J17-Pad2)*%
X155200000Y-120800000D03*
D24*
%TO.P,JP1,3,B*%
%TO.N,Net-(J15-Pad2)*%
X156500000Y-120800000D03*
%TD*%
D25*
%TO.N,GND*%
X201000000Y-146100000D03*
X158700000Y-117700000D03*
D26*
X199500000Y-137400000D03*
D25*
X159800000Y-118700000D03*
X158700000Y-116600000D03*
X159800000Y-116600000D03*
X197455000Y-143155000D03*
X200000000Y-145100000D03*
X200000000Y-146100000D03*
X158700000Y-118700000D03*
D26*
X158900000Y-121500000D03*
D25*
X202300000Y-144600000D03*
D26*
X203900000Y-140900000D03*
D25*
X159800000Y-117700000D03*
D26*
X200500000Y-135200000D03*
D25*
X202300000Y-145600000D03*
X201000000Y-145100000D03*
D26*
%TO.N,Net-(C6-Pad2)*%
X194800000Y-143400000D03*
X195100000Y-139700000D03*
D25*
%TO.N,/LED_GND*%
X164230000Y-113980000D03*
X162980000Y-113980000D03*
X165600000Y-109000000D03*
X162700000Y-112800000D03*
X162600000Y-111400000D03*
X165500000Y-114000000D03*
X162570000Y-110170000D03*
X162880000Y-109020000D03*
X164230000Y-109020000D03*
D26*
%TO.N,/LED_DATA_1*%
X154800000Y-113800000D03*
%TO.N,+5V*%
X152100000Y-109700000D03*
%TO.N,+3V3*%
X153700000Y-110400000D03*
%TO.N,/GPS_RXD*%
X162900000Y-127600000D03*
%TO.N,/GPS_TXD*%
X162610000Y-128810000D03*
%TO.N,/LED_PWR_EN*%
X155500000Y-115800000D03*
%TO.N,/LED_DATA_LV_1*%
X159400000Y-107400000D03*
%TO.N,/LED_DATA_LV_2*%
X159700000Y-106800000D03*
%TO.N,/LED_DATA_2*%
X152900000Y-109400000D03*
D27*
%TO.N,Net-(R7-Pad1)*%
X177800000Y-137800000D03*
D26*
X199800000Y-140100000D03*
D27*
%TO.N,Net-(R8-Pad2)*%
X173000000Y-138300000D03*
D26*
X200100000Y-140700000D03*
%TO.N,Net-(R13-Pad1)*%
X199300000Y-138800000D03*
X204400000Y-138900000D03*
%TO.N,Net-(R13-Pad2)*%
X204500000Y-137900000D03*
X199800000Y-142300000D03*
%TO.N,Net-(R14-Pad2)*%
X202400000Y-139800000D03*
X200300000Y-141700000D03*
%TD*%
D28*
%TO.N,GND*%
X200000000Y-146100000D02*
X201800000Y-146100000D01*
X201800000Y-145100000D02*
X202300000Y-144600000D01*
X200000000Y-145100000D02*
X201800000Y-145100000D01*
X202300000Y-144600000D02*
X202300000Y-145600000D01*
X200000000Y-145100000D02*
X200000000Y-146100000D01*
X201800000Y-146100000D02*
X202300000Y-145600000D01*
D29*
%TO.N,Net-(C6-Pad2)*%
X195000000Y-143200000D02*
X194800000Y-143400000D01*
X195000000Y-139800000D02*
X195000000Y-143200000D01*
%TO.N,/LED_DATA_1*%
X165700000Y-115300000D02*
X166770000Y-114230000D01*
X166770000Y-114230000D02*
X166770000Y-111480000D01*
X156300000Y-115300000D02*
X165700000Y-115300000D01*
X154800000Y-113800000D02*
X156300000Y-115300000D01*
%TO.N,Net-(J10-Pad2)*%
X175520000Y-111500000D02*
X175520000Y-112680000D01*
X166770000Y-118250000D02*
X170220000Y-114800000D01*
X175520000Y-112680000D02*
X173400000Y-114800000D01*
X170220000Y-114800000D02*
X173400000Y-114800000D01*
%TO.N,Net-(J11-Pad2)*%
X184270000Y-112930000D02*
X182400000Y-114800000D01*
X175520000Y-118250000D02*
X175650000Y-118250000D01*
X184270000Y-111480000D02*
X184270000Y-112930000D01*
X182400000Y-114800000D02*
X179100000Y-114800000D01*
X175650000Y-118250000D02*
X179100000Y-114800000D01*
%TO.N,Net-(J12-Pad2)*%
X184270000Y-118230000D02*
X187700000Y-114800000D01*
X189720000Y-114800000D02*
X193020000Y-111500000D01*
X184270000Y-118250000D02*
X184270000Y-118230000D01*
X187700000Y-114800000D02*
X189720000Y-114800000D01*
%TO.N,Net-(J13-Pad2)*%
X196290000Y-115000000D02*
X198800000Y-115000000D01*
X201770000Y-112030000D02*
X201770000Y-111480000D01*
X198800000Y-115000000D02*
X201770000Y-112030000D01*
X193020000Y-118270000D02*
X196290000Y-115000000D01*
%TO.N,Net-(J14-Pad2)*%
X201770000Y-117430000D02*
X204300000Y-114900000D01*
X207120000Y-114900000D02*
X210520000Y-111500000D01*
X204300000Y-114900000D02*
X207120000Y-114900000D01*
X201770000Y-118250000D02*
X201770000Y-117430000D01*
%TO.N,Net-(J15-Pad2)*%
X156500000Y-120800000D02*
X207990000Y-120800000D01*
X207990000Y-120800000D02*
X210520000Y-118270000D01*
%TO.N,Net-(J17-Pad2)*%
X155200000Y-121750000D02*
X155550000Y-122100000D01*
X163890000Y-122100000D02*
X166770000Y-124980000D01*
X155200000Y-120800000D02*
X155200000Y-121750000D01*
X155550000Y-122100000D02*
X163890000Y-122100000D01*
%TO.N,Net-(J18-Pad2)*%
X166770000Y-131750000D02*
X168420000Y-130100000D01*
X168420000Y-130100000D02*
X174700000Y-130100000D01*
X174700000Y-130100000D02*
X175460000Y-129340000D01*
X175460000Y-129340000D02*
X175460000Y-124960000D01*
%TO.N,Net-(J19-Pad2)*%
X180670000Y-128500000D02*
X184210000Y-124960000D01*
X178710000Y-128500000D02*
X180670000Y-128500000D01*
X175460000Y-131750000D02*
X178710000Y-128500000D01*
%TO.N,Net-(J20-Pad2)*%
X184210000Y-131750000D02*
X187560000Y-128400000D01*
X187560000Y-128400000D02*
X189520000Y-128400000D01*
X189520000Y-128400000D02*
X192960000Y-124960000D01*
%TO.N,Net-(J21-Pad2)*%
X192960000Y-131730000D02*
X196290000Y-128400000D01*
X198270000Y-128400000D02*
X201710000Y-124960000D01*
X196290000Y-128400000D02*
X198270000Y-128400000D01*
%TO.N,Net-(J22-Pad2)*%
X207020000Y-128400000D02*
X210460000Y-124960000D01*
X201710000Y-131730000D02*
X205040000Y-128400000D01*
X205040000Y-128400000D02*
X207020000Y-128400000D01*
D28*
%TO.N,+3V3*%
X173690000Y-143400000D02*
X176390000Y-140700000D01*
X151100489Y-109227409D02*
X153152898Y-107175000D01*
X156100000Y-143400000D02*
X173690000Y-143400000D01*
D29*
X156900000Y-104900000D02*
X157575000Y-105575000D01*
D28*
X154750978Y-123800000D02*
X154750978Y-142050978D01*
D29*
X178695000Y-104775000D02*
X177400000Y-103480000D01*
X153700000Y-110400000D02*
X153700000Y-109450000D01*
X176700000Y-100900000D02*
X157900000Y-100900000D01*
D28*
X154750978Y-123800000D02*
X151100489Y-120149511D01*
X157575000Y-105575000D02*
X155975000Y-107175000D01*
X151100489Y-120149511D02*
X151100489Y-109227409D01*
D29*
X156900000Y-101900000D02*
X156900000Y-104900000D01*
X157900000Y-100900000D02*
X156900000Y-101900000D01*
D28*
X158375000Y-104775000D02*
X157575000Y-105575000D01*
X160000000Y-123800000D02*
X154750978Y-123800000D01*
D29*
X153700000Y-109450000D02*
X155975000Y-107175000D01*
D28*
X153152898Y-107175000D02*
X155975000Y-107175000D01*
X154750978Y-142050978D02*
X156100000Y-143400000D01*
D29*
X177400000Y-103480000D02*
X177400000Y-101600000D01*
X177400000Y-101600000D02*
X176700000Y-100900000D01*
%TO.N,/GPS_RXD*%
X162900000Y-127600000D02*
X161280000Y-127600000D01*
X161280000Y-127600000D02*
X160000000Y-128880000D01*
%TO.N,/GPS_TXD*%
X162610000Y-128810000D02*
X160000000Y-131420000D01*
%TO.N,/LED_PWR_EN*%
X163900000Y-103500000D02*
X164845489Y-104445489D01*
X160300000Y-103500000D02*
X163900000Y-103500000D01*
X164845489Y-104445489D02*
X164845489Y-105745489D01*
X159700000Y-104100000D02*
X160300000Y-103500000D01*
X154000000Y-114200000D02*
X154000000Y-111500000D01*
X159700000Y-105800000D02*
X159700000Y-104100000D01*
X192110000Y-106600000D02*
X193935000Y-104775000D01*
X165700000Y-106600000D02*
X192110000Y-106600000D01*
X154000000Y-114200000D02*
X155500000Y-115700000D01*
X155500000Y-115700000D02*
X155500000Y-115800000D01*
X154000000Y-111500000D02*
X159700000Y-105800000D01*
X164845489Y-105745489D02*
X165700000Y-106600000D01*
%TO.N,/LED_DATA_LV_1*%
X199700000Y-103500000D02*
X197740000Y-103500000D01*
X198100000Y-107400000D02*
X200200000Y-105300000D01*
X200200000Y-104000000D02*
X199700000Y-103500000D01*
X200200000Y-105300000D02*
X200200000Y-104000000D01*
X197740000Y-103500000D02*
X196475000Y-102235000D01*
X159400000Y-107400000D02*
X198100000Y-107400000D01*
%TO.N,/LED_DATA_LV_2*%
X159700000Y-106800000D02*
X159900000Y-107000000D01*
X159900000Y-107000000D02*
X196790000Y-107000000D01*
X196790000Y-107000000D02*
X199015000Y-104775000D01*
%TO.N,/LED_DATA_2*%
X152900000Y-119800000D02*
X152900000Y-109400000D01*
X153900000Y-120800000D02*
X152900000Y-119800000D01*
%TO.N,Net-(R7-Pad1)*%
X199700000Y-140100000D02*
X195200000Y-135600000D01*
X180000000Y-135600000D02*
X177800000Y-137800000D01*
X195200000Y-135600000D02*
X180000000Y-135600000D01*
X199800000Y-140100000D02*
X199700000Y-140100000D01*
%TO.N,Net-(R8-Pad2)*%
X194950000Y-136100000D02*
X181300000Y-136100000D01*
X199550000Y-140700000D02*
X194950000Y-136100000D01*
X178600000Y-138800000D02*
X173500000Y-138800000D01*
X200100000Y-140700000D02*
X199550000Y-140700000D01*
X181300000Y-136100000D02*
X178600000Y-138800000D01*
X173500000Y-138800000D02*
X173000000Y-138300000D01*
%TO.N,Net-(R13-Pad1)*%
X199300000Y-138800000D02*
X199500000Y-139000000D01*
X199500000Y-139000000D02*
X204300000Y-139000000D01*
X204300000Y-139000000D02*
X204400000Y-138900000D01*
D30*
%TO.N,Net-(J1-Pad2)*%
X202300000Y-148300000D02*
X195300000Y-148300000D01*
X203200000Y-147400000D02*
X202300000Y-148300000D01*
X203200000Y-147400000D02*
X204100000Y-146500000D01*
X204100000Y-146500000D02*
X204100000Y-142750000D01*
X203200000Y-152300000D02*
X203200000Y-147400000D01*
X195300000Y-148300000D02*
X191200000Y-152400000D01*
X204100000Y-142750000D02*
X207000000Y-139850000D01*
D29*
%TO.N,Net-(R13-Pad2)*%
X201300000Y-142300000D02*
X203900000Y-139700000D01*
X204000000Y-139600000D02*
X204800000Y-139600000D01*
X205100000Y-139300000D02*
X205100000Y-138500000D01*
X204800000Y-139600000D02*
X205100000Y-139300000D01*
X203900000Y-139700000D02*
X204000000Y-139600000D01*
X205100000Y-138500000D02*
X204500000Y-137900000D01*
X199800000Y-142300000D02*
X201300000Y-142300000D01*
%TO.N,Net-(R14-Pad2)*%
X200500000Y-141700000D02*
X200300000Y-141700000D01*
X200500000Y-141700000D02*
X202400000Y-139800000D01*
%TD*%
M02*
