%TF.GenerationSoftware,KiCad,Pcbnew,(6.0.1)*%
%TF.CreationDate,2022-03-24T21:22:16+00:00*%
%TF.ProjectId,isopod_distro,69736f70-6f64-45f6-9469-7374726f2e6b,rev?*%
%TF.SameCoordinates,Original*%
%TF.FileFunction,Copper,L1,Top*%
%TF.FilePolarity,Positive*%
%FSLAX46Y46*%
G04 Gerber Fmt 4.6, Leading zero omitted, Abs format (unit mm)*
G04 Created by KiCad (PCBNEW (6.0.1)) date 2022-03-24 21:22:16*
%MOMM*%
%LPD*%
G01*
G04 APERTURE LIST*
G04 Aperture macros list*
%AMRoundRect*
0 Rectangle with rounded corners*
0 $1 Rounding radius*
0 $2 $3 $4 $5 $6 $7 $8 $9 X,Y pos of 4 corners*
0 Add a 4 corners polygon primitive as box body*
4,1,4,$2,$3,$4,$5,$6,$7,$8,$9,$2,$3,0*
0 Add four circle primitives for the rounded corners*
1,1,$1+$1,$2,$3*
1,1,$1+$1,$4,$5*
1,1,$1+$1,$6,$7*
1,1,$1+$1,$8,$9*
0 Add four rect primitives between the rounded corners*
20,1,$1+$1,$2,$3,$4,$5,0*
20,1,$1+$1,$4,$5,$6,$7,0*
20,1,$1+$1,$6,$7,$8,$9,0*
20,1,$1+$1,$8,$9,$2,$3,0*%
G04 Aperture macros list end*
%TA.AperFunction,ComponentPad*%
%ADD10RoundRect,0.250001X-1.099999X-1.399999X1.099999X-1.399999X1.099999X1.399999X-1.099999X1.399999X0*%
%TD*%
%TA.AperFunction,ComponentPad*%
%ADD11O,2.700000X3.300000*%
%TD*%
%TA.AperFunction,SMDPad,CuDef*%
%ADD12RoundRect,0.150000X0.150000X-0.587500X0.150000X0.587500X-0.150000X0.587500X-0.150000X-0.587500X0*%
%TD*%
%TA.AperFunction,SMDPad,CuDef*%
%ADD13RoundRect,0.237500X-0.250000X-0.237500X0.250000X-0.237500X0.250000X0.237500X-0.250000X0.237500X0*%
%TD*%
%TA.AperFunction,SMDPad,CuDef*%
%ADD14RoundRect,0.237500X-0.300000X-0.237500X0.300000X-0.237500X0.300000X0.237500X-0.300000X0.237500X0*%
%TD*%
%TA.AperFunction,ComponentPad*%
%ADD15RoundRect,0.250000X-0.620000X-0.845000X0.620000X-0.845000X0.620000X0.845000X-0.620000X0.845000X0*%
%TD*%
%TA.AperFunction,ComponentPad*%
%ADD16O,1.740000X2.190000*%
%TD*%
%TA.AperFunction,SMDPad,CuDef*%
%ADD17RoundRect,0.237500X0.237500X-0.250000X0.237500X0.250000X-0.237500X0.250000X-0.237500X-0.250000X0*%
%TD*%
%TA.AperFunction,ComponentPad*%
%ADD18R,1.700000X1.700000*%
%TD*%
%TA.AperFunction,ComponentPad*%
%ADD19O,1.700000X1.700000*%
%TD*%
%TA.AperFunction,ComponentPad*%
%ADD20R,3.800000X3.800000*%
%TD*%
%TA.AperFunction,ComponentPad*%
%ADD21C,3.800000*%
%TD*%
%TA.AperFunction,SMDPad,CuDef*%
%ADD22RoundRect,0.250000X-0.400000X-0.625000X0.400000X-0.625000X0.400000X0.625000X-0.400000X0.625000X0*%
%TD*%
%TA.AperFunction,SMDPad,CuDef*%
%ADD23RoundRect,0.237500X0.300000X0.237500X-0.300000X0.237500X-0.300000X-0.237500X0.300000X-0.237500X0*%
%TD*%
%TA.AperFunction,SMDPad,CuDef*%
%ADD24RoundRect,0.250000X0.350000X0.450000X-0.350000X0.450000X-0.350000X-0.450000X0.350000X-0.450000X0*%
%TD*%
%TA.AperFunction,SMDPad,CuDef*%
%ADD25RoundRect,0.237500X0.250000X0.237500X-0.250000X0.237500X-0.250000X-0.237500X0.250000X-0.237500X0*%
%TD*%
%TA.AperFunction,SMDPad,CuDef*%
%ADD26RoundRect,0.250000X-0.350000X-0.450000X0.350000X-0.450000X0.350000X0.450000X-0.350000X0.450000X0*%
%TD*%
%TA.AperFunction,ComponentPad*%
%ADD27C,2.000000*%
%TD*%
%TA.AperFunction,WasherPad*%
%ADD28C,3.500000*%
%TD*%
%TA.AperFunction,ComponentPad*%
%ADD29RoundRect,0.250000X-0.725000X0.600000X-0.725000X-0.600000X0.725000X-0.600000X0.725000X0.600000X0*%
%TD*%
%TA.AperFunction,ComponentPad*%
%ADD30O,1.950000X1.700000*%
%TD*%
%TA.AperFunction,SMDPad,CuDef*%
%ADD31R,1.200000X2.200000*%
%TD*%
%TA.AperFunction,SMDPad,CuDef*%
%ADD32R,5.800000X6.400000*%
%TD*%
%TA.AperFunction,SMDPad,CuDef*%
%ADD33RoundRect,0.050000X-0.337500X-0.050000X0.337500X-0.050000X0.337500X0.050000X-0.337500X0.050000X0*%
%TD*%
%TA.AperFunction,SMDPad,CuDef*%
%ADD34R,1.780000X2.350000*%
%TD*%
%TA.AperFunction,SMDPad,CuDef*%
%ADD35RoundRect,0.237500X-0.237500X0.250000X-0.237500X-0.250000X0.237500X-0.250000X0.237500X0.250000X0*%
%TD*%
%TA.AperFunction,ViaPad*%
%ADD36C,1.000000*%
%TD*%
%TA.AperFunction,ViaPad*%
%ADD37C,0.460000*%
%TD*%
%TA.AperFunction,ViaPad*%
%ADD38C,0.800000*%
%TD*%
%TA.AperFunction,Conductor*%
%ADD39C,0.200000*%
%TD*%
%TA.AperFunction,Conductor*%
%ADD40C,1.000000*%
%TD*%
%TA.AperFunction,Conductor*%
%ADD41C,0.500000*%
%TD*%
%TA.AperFunction,Conductor*%
%ADD42C,2.000000*%
%TD*%
G04 APERTURE END LIST*
D10*
%TO.P,J8,1,Pin_1*%
%TO.N,Net-(J1-Pad2)*%
X207000000Y-139850000D03*
D11*
%TO.P,J8,2,Pin_2*%
%TO.N,GND*%
X211200000Y-139850000D03*
%TO.P,J8,3,Pin_3*%
X207000000Y-145350000D03*
%TO.P,J8,4,Pin_4*%
%TO.N,+5V*%
X211200000Y-145350000D03*
%TD*%
D12*
%TO.P,Q2,1,G*%
%TO.N,+3V3*%
X152800000Y-116187500D03*
%TO.P,Q2,2,S*%
%TO.N,/LED_DATA_LV_1*%
X154700000Y-116187500D03*
%TO.P,Q2,3,D*%
%TO.N,/LED_DATA_1*%
X153750000Y-114312500D03*
%TD*%
D13*
%TO.P,R11,1*%
%TO.N,+3V3*%
X152837500Y-112500000D03*
%TO.P,R11,2*%
%TO.N,/LED_DATA_LV_2*%
X154662500Y-112500000D03*
%TD*%
D14*
%TO.P,C1,1*%
%TO.N,Net-(C1-Pad1)*%
X196600000Y-138200000D03*
%TO.P,C1,2*%
%TO.N,GND*%
X198325000Y-138200000D03*
%TD*%
D15*
%TO.P,J23,1,Pin_1*%
%TO.N,/LED_GND*%
X164230000Y-131750000D03*
D16*
%TO.P,J23,2,Pin_2*%
%TO.N,Net-(J18-Pad2)*%
X166770000Y-131750000D03*
%TO.P,J23,3,Pin_3*%
%TO.N,+5V*%
X169310000Y-131750000D03*
%TD*%
D15*
%TO.P,J15,1,Pin_1*%
%TO.N,/LED_GND*%
X207980000Y-118270000D03*
D16*
%TO.P,J15,2,Pin_2*%
%TO.N,Net-(J15-Pad2)*%
X210520000Y-118270000D03*
%TO.P,J15,3,Pin_3*%
%TO.N,+5V*%
X213060000Y-118270000D03*
%TD*%
D17*
%TO.P,R12,1*%
%TO.N,+5V*%
X151112500Y-110475000D03*
%TO.P,R12,2*%
%TO.N,/LED_DATA_2*%
X151112500Y-108650000D03*
%TD*%
D18*
%TO.P,J30,1,3V3*%
%TO.N,+3V3*%
X158375000Y-104775000D03*
D19*
%TO.P,J30,2,5V*%
%TO.N,+5V*%
X158375000Y-102235000D03*
%TO.P,J30,3,SDA/GPIO2*%
%TO.N,/I2C_SDA*%
X160915000Y-104775000D03*
%TO.P,J30,4,5V*%
%TO.N,+5V*%
X160915000Y-102235000D03*
%TO.P,J30,5,SCL/GPIO3*%
%TO.N,/I2C_SCL*%
X163455000Y-104775000D03*
%TO.P,J30,6,GND*%
%TO.N,GND*%
X163455000Y-102235000D03*
%TO.P,J30,7,GCLK0/GPIO4*%
%TO.N,unconnected-(J30-Pad7)*%
X165995000Y-104775000D03*
%TO.P,J30,8,GPIO14/TXD*%
%TO.N,/GPS_RXD*%
X165995000Y-102235000D03*
%TO.P,J30,9,GND*%
%TO.N,GND*%
X168535000Y-104775000D03*
%TO.P,J30,10,GPIO15/RXD*%
%TO.N,/GPS_TXD*%
X168535000Y-102235000D03*
%TO.P,J30,11,GPIO17*%
%TO.N,unconnected-(J30-Pad11)*%
X171075000Y-104775000D03*
%TO.P,J30,12,GPIO18/PWM0*%
%TO.N,unconnected-(J30-Pad12)*%
X171075000Y-102235000D03*
%TO.P,J30,13,GPIO27*%
%TO.N,unconnected-(J30-Pad13)*%
X173615000Y-104775000D03*
%TO.P,J30,14,GND*%
%TO.N,GND*%
X173615000Y-102235000D03*
%TO.P,J30,15,GPIO22*%
%TO.N,unconnected-(J30-Pad15)*%
X176155000Y-104775000D03*
%TO.P,J30,16,GPIO23*%
%TO.N,unconnected-(J30-Pad16)*%
X176155000Y-102235000D03*
%TO.P,J30,17,3V3*%
%TO.N,+3V3*%
X178695000Y-104775000D03*
%TO.P,J30,18,GPIO24*%
%TO.N,unconnected-(J30-Pad18)*%
X178695000Y-102235000D03*
%TO.P,J30,19,MOSI0/GPIO10*%
%TO.N,unconnected-(J30-Pad19)*%
X181235000Y-104775000D03*
%TO.P,J30,20,GND*%
%TO.N,GND*%
X181235000Y-102235000D03*
%TO.P,J30,21,MISO0/GPIO9*%
%TO.N,unconnected-(J30-Pad21)*%
X183775000Y-104775000D03*
%TO.P,J30,22,GPIO25*%
%TO.N,unconnected-(J30-Pad22)*%
X183775000Y-102235000D03*
%TO.P,J30,23,SCLK0/GPIO11*%
%TO.N,unconnected-(J30-Pad23)*%
X186315000Y-104775000D03*
%TO.P,J30,24,~{CE0}/GPIO8*%
%TO.N,unconnected-(J30-Pad24)*%
X186315000Y-102235000D03*
%TO.P,J30,25,GND*%
%TO.N,GND*%
X188855000Y-104775000D03*
%TO.P,J30,26,~{CE1}/GPIO7*%
%TO.N,unconnected-(J30-Pad26)*%
X188855000Y-102235000D03*
%TO.P,J30,27,ID_SD/GPIO0*%
%TO.N,unconnected-(J30-Pad27)*%
X191395000Y-104775000D03*
%TO.P,J30,28,ID_SC/GPIO1*%
%TO.N,unconnected-(J30-Pad28)*%
X191395000Y-102235000D03*
%TO.P,J30,29,GCLK1/GPIO5*%
%TO.N,/LED_PWR_EN*%
X193935000Y-104775000D03*
%TO.P,J30,30,GND*%
%TO.N,GND*%
X193935000Y-102235000D03*
%TO.P,J30,31,GCLK2/GPIO6*%
%TO.N,unconnected-(J30-Pad31)*%
X196475000Y-104775000D03*
%TO.P,J30,32,PWM0/GPIO12*%
%TO.N,/LED_DATA_LV_1*%
X196475000Y-102235000D03*
%TO.P,J30,33,PWM1/GPIO13*%
%TO.N,/LED_DATA_LV_2*%
X199015000Y-104775000D03*
%TO.P,J30,34,GND*%
%TO.N,GND*%
X199015000Y-102235000D03*
%TO.P,J30,35,GPIO19/MISO1*%
%TO.N,unconnected-(J30-Pad35)*%
X201555000Y-104775000D03*
%TO.P,J30,36,GPIO16*%
%TO.N,unconnected-(J30-Pad36)*%
X201555000Y-102235000D03*
%TO.P,J30,37,GPIO26*%
%TO.N,unconnected-(J30-Pad37)*%
X204095000Y-104775000D03*
%TO.P,J30,38,GPIO20/MOSI1*%
%TO.N,unconnected-(J30-Pad38)*%
X204095000Y-102235000D03*
%TO.P,J30,39,GND*%
%TO.N,GND*%
X206635000Y-104775000D03*
%TO.P,J30,40,GPIO21/SCLK1*%
%TO.N,unconnected-(J30-Pad40)*%
X206635000Y-102235000D03*
%TD*%
D12*
%TO.P,Q3,1,G*%
%TO.N,+3V3*%
X152750000Y-110750000D03*
%TO.P,Q3,2,S*%
%TO.N,/LED_DATA_LV_2*%
X154650000Y-110750000D03*
%TO.P,Q3,3,D*%
%TO.N,/LED_DATA_2*%
X153700000Y-108875000D03*
%TD*%
D15*
%TO.P,J11,1,Pin_1*%
%TO.N,/LED_GND*%
X172980000Y-118250000D03*
D16*
%TO.P,J11,2,Pin_2*%
%TO.N,Net-(J11-Pad2)*%
X175520000Y-118250000D03*
%TO.P,J11,3,Pin_3*%
%TO.N,+5V*%
X178060000Y-118250000D03*
%TD*%
D20*
%TO.P,J16,1,Pin_1*%
%TO.N,Net-(C6-Pad2)*%
X186200000Y-152400000D03*
D21*
%TO.P,J16,2,Pin_2*%
%TO.N,Net-(J1-Pad2)*%
X191200000Y-152400000D03*
%TD*%
D15*
%TO.P,J14,1,Pin_1*%
%TO.N,/LED_GND*%
X199230000Y-118250000D03*
D16*
%TO.P,J14,2,Pin_2*%
%TO.N,Net-(J14-Pad2)*%
X201770000Y-118250000D03*
%TO.P,J14,3,Pin_3*%
%TO.N,+5V*%
X204310000Y-118250000D03*
%TD*%
D22*
%TO.P,R4,1*%
%TO.N,Net-(C6-Pad2)*%
X195400000Y-145100000D03*
%TO.P,R4,2*%
%TO.N,GND*%
X198500000Y-145100000D03*
%TD*%
D15*
%TO.P,J13,1,Pin_1*%
%TO.N,/LED_GND*%
X190480000Y-118270000D03*
D16*
%TO.P,J13,2,Pin_2*%
%TO.N,Net-(J13-Pad2)*%
X193020000Y-118270000D03*
%TO.P,J13,3,Pin_3*%
%TO.N,+5V*%
X195560000Y-118270000D03*
%TD*%
D23*
%TO.P,C5,1*%
%TO.N,Net-(C3-Pad2)*%
X192900000Y-141500000D03*
%TO.P,C5,2*%
%TO.N,Net-(C5-Pad2)*%
X191175000Y-141500000D03*
%TD*%
D13*
%TO.P,R8,1*%
%TO.N,/I2C_SCL*%
X171200000Y-136800000D03*
%TO.P,R8,2*%
%TO.N,Net-(R8-Pad2)*%
X173025000Y-136800000D03*
%TD*%
D20*
%TO.P,J1,1,Pin_1*%
%TO.N,GND*%
X198200000Y-152300000D03*
D21*
%TO.P,J1,2,Pin_2*%
%TO.N,Net-(J1-Pad2)*%
X203200000Y-152300000D03*
%TD*%
D24*
%TO.P,R1,1*%
%TO.N,Net-(J1-Pad2)*%
X203000000Y-142900000D03*
%TO.P,R1,2*%
%TO.N,Net-(C3-Pad1)*%
X201000000Y-142900000D03*
%TD*%
D15*
%TO.P,J19,1,Pin_1*%
%TO.N,/LED_GND*%
X181670000Y-124960000D03*
D16*
%TO.P,J19,2,Pin_2*%
%TO.N,Net-(J19-Pad2)*%
X184210000Y-124960000D03*
%TO.P,J19,3,Pin_3*%
%TO.N,+5V*%
X186750000Y-124960000D03*
%TD*%
D25*
%TO.P,R5,1*%
%TO.N,/LED_PWR_EN*%
X161575000Y-120000000D03*
%TO.P,R5,2*%
%TO.N,Net-(Q1-Pad1)*%
X159750000Y-120000000D03*
%TD*%
D15*
%TO.P,J2,1,Pin_1*%
%TO.N,/LED_GND*%
X164230000Y-111480000D03*
D16*
%TO.P,J2,2,Pin_2*%
%TO.N,/LED_DATA_1*%
X166770000Y-111480000D03*
%TO.P,J2,3,Pin_3*%
%TO.N,+5V*%
X169310000Y-111480000D03*
%TD*%
D14*
%TO.P,C4,1*%
%TO.N,Net-(C3-Pad1)*%
X201100000Y-140900000D03*
%TO.P,C4,2*%
%TO.N,GND*%
X202825000Y-140900000D03*
%TD*%
D26*
%TO.P,R2,1*%
%TO.N,Net-(J29-Pad2)*%
X190900000Y-139500000D03*
%TO.P,R2,2*%
%TO.N,Net-(C3-Pad2)*%
X192900000Y-139500000D03*
%TD*%
D15*
%TO.P,J25,1,Pin_1*%
%TO.N,/LED_GND*%
X181670000Y-131750000D03*
D16*
%TO.P,J25,2,Pin_2*%
%TO.N,Net-(J20-Pad2)*%
X184210000Y-131750000D03*
%TO.P,J25,3,Pin_3*%
%TO.N,+5V*%
X186750000Y-131750000D03*
%TD*%
D27*
%TO.P,U2,1,SDA*%
%TO.N,unconnected-(U2-Pad1)*%
X160000000Y-136500000D03*
%TO.P,U2,2,SCL*%
%TO.N,unconnected-(U2-Pad2)*%
X160000000Y-133960000D03*
%TO.P,U2,3,TXD*%
%TO.N,/GPS_TXD*%
X160000000Y-131420000D03*
%TO.P,U2,4,RXD*%
%TO.N,/GPS_RXD*%
X160000000Y-128880000D03*
%TO.P,U2,5,GND*%
%TO.N,GND*%
X160000000Y-126340000D03*
%TO.P,U2,6,VCC*%
%TO.N,+3V3*%
X160000000Y-123800000D03*
%TD*%
D26*
%TO.P,R3,1*%
%TO.N,Net-(J29-Pad3)*%
X190900000Y-143500000D03*
%TO.P,R3,2*%
%TO.N,Net-(C5-Pad2)*%
X192900000Y-143500000D03*
%TD*%
D28*
%TO.P,U3,*%
%TO.N,*%
X159880000Y-153400000D03*
X180200000Y-153400000D03*
X180200000Y-140700000D03*
X159880000Y-140700000D03*
D27*
%TO.P,U3,1,VIN*%
%TO.N,+3V3*%
X176390000Y-140700000D03*
%TO.P,U3,2,1V8*%
%TO.N,unconnected-(U3-Pad2)*%
X173850000Y-140700000D03*
%TO.P,U3,3,GND*%
%TO.N,GND*%
X171310000Y-140700000D03*
%TO.P,U3,4,SCL/SCK*%
%TO.N,/I2C_SCL*%
X168770000Y-140700000D03*
%TO.P,U3,5,SDA/MOSI*%
%TO.N,/I2C_SDA*%
X166230000Y-140700000D03*
%TO.P,U3,6,INT*%
%TO.N,unconnected-(U3-Pad6)*%
X163690000Y-140700000D03*
%TO.P,U3,7,FS*%
%TO.N,unconnected-(U3-Pad7)*%
X176390000Y-153400000D03*
%TO.P,U3,8,AD*%
%TO.N,unconnected-(U3-Pad8)*%
X173850000Y-153400000D03*
%TO.P,U3,9,AC*%
%TO.N,unconnected-(U3-Pad9)*%
X171310000Y-153400000D03*
%TO.P,U3,10,G*%
%TO.N,GND*%
X168770000Y-153400000D03*
%TO.P,U3,11,SDO/MISO*%
%TO.N,unconnected-(U3-Pad11)*%
X166230000Y-153400000D03*
%TO.P,U3,12,CS*%
%TO.N,unconnected-(U3-Pad12)*%
X163690000Y-153400000D03*
%TD*%
D15*
%TO.P,J4,1,Pin_1*%
%TO.N,/LED_GND*%
X181730000Y-111480000D03*
D16*
%TO.P,J4,2,Pin_2*%
%TO.N,Net-(J11-Pad2)*%
X184270000Y-111480000D03*
%TO.P,J4,3,Pin_3*%
%TO.N,+5V*%
X186810000Y-111480000D03*
%TD*%
D14*
%TO.P,C3,1*%
%TO.N,Net-(C3-Pad1)*%
X191075000Y-137500000D03*
%TO.P,C3,2*%
%TO.N,Net-(C3-Pad2)*%
X192800000Y-137500000D03*
%TD*%
D29*
%TO.P,J29,1,Pin_1*%
%TO.N,unconnected-(J29-Pad1)*%
X186900000Y-138700000D03*
D30*
%TO.P,J29,2,Pin_2*%
%TO.N,Net-(J29-Pad2)*%
X186900000Y-141200000D03*
%TO.P,J29,3,Pin_3*%
%TO.N,Net-(J29-Pad3)*%
X186900000Y-143700000D03*
%TO.P,J29,4,Pin_4*%
%TO.N,unconnected-(J29-Pad4)*%
X186900000Y-146200000D03*
%TD*%
D15*
%TO.P,J17,1,Pin_1*%
%TO.N,/LED_GND*%
X164230000Y-124980000D03*
D16*
%TO.P,J17,2,Pin_2*%
%TO.N,Net-(J17-Pad2)*%
X166770000Y-124980000D03*
%TO.P,J17,3,Pin_3*%
%TO.N,+5V*%
X169310000Y-124980000D03*
%TD*%
D23*
%TO.P,C6,1*%
%TO.N,Net-(C5-Pad2)*%
X192700000Y-145500000D03*
%TO.P,C6,2*%
%TO.N,Net-(C6-Pad2)*%
X190975000Y-145500000D03*
%TD*%
D15*
%TO.P,J27,1,Pin_1*%
%TO.N,/LED_GND*%
X199170000Y-131730000D03*
D16*
%TO.P,J27,2,Pin_2*%
%TO.N,Net-(J22-Pad2)*%
X201710000Y-131730000D03*
%TO.P,J27,3,Pin_3*%
%TO.N,+5V*%
X204250000Y-131730000D03*
%TD*%
D15*
%TO.P,J6,1,Pin_1*%
%TO.N,/LED_GND*%
X199230000Y-111480000D03*
D16*
%TO.P,J6,2,Pin_2*%
%TO.N,Net-(J13-Pad2)*%
X201770000Y-111480000D03*
%TO.P,J6,3,Pin_3*%
%TO.N,+5V*%
X204310000Y-111480000D03*
%TD*%
D15*
%TO.P,J20,1,Pin_1*%
%TO.N,/LED_GND*%
X190420000Y-124960000D03*
D16*
%TO.P,J20,2,Pin_2*%
%TO.N,Net-(J20-Pad2)*%
X192960000Y-124960000D03*
%TO.P,J20,3,Pin_3*%
%TO.N,+5V*%
X195500000Y-124960000D03*
%TD*%
D25*
%TO.P,R7,1*%
%TO.N,Net-(R7-Pad1)*%
X176712500Y-136810000D03*
%TO.P,R7,2*%
%TO.N,/I2C_SDA*%
X174887500Y-136810000D03*
%TD*%
D15*
%TO.P,J12,1,Pin_1*%
%TO.N,/LED_GND*%
X181730000Y-118250000D03*
D16*
%TO.P,J12,2,Pin_2*%
%TO.N,Net-(J12-Pad2)*%
X184270000Y-118250000D03*
%TO.P,J12,3,Pin_3*%
%TO.N,+5V*%
X186810000Y-118250000D03*
%TD*%
D15*
%TO.P,J5,1,Pin_1*%
%TO.N,/LED_GND*%
X190480000Y-111500000D03*
D16*
%TO.P,J5,2,Pin_2*%
%TO.N,Net-(J12-Pad2)*%
X193020000Y-111500000D03*
%TO.P,J5,3,Pin_3*%
%TO.N,+5V*%
X195560000Y-111500000D03*
%TD*%
D15*
%TO.P,J10,1,Pin_1*%
%TO.N,/LED_GND*%
X164230000Y-118250000D03*
D16*
%TO.P,J10,2,Pin_2*%
%TO.N,Net-(J10-Pad2)*%
X166770000Y-118250000D03*
%TO.P,J10,3,Pin_3*%
%TO.N,+5V*%
X169310000Y-118250000D03*
%TD*%
D31*
%TO.P,Q1,1,G*%
%TO.N,Net-(Q1-Pad1)*%
X156720000Y-117700000D03*
D32*
%TO.P,Q1,2,D*%
%TO.N,/LED_GND*%
X159000000Y-111400000D03*
D31*
%TO.P,Q1,3,S*%
%TO.N,GND*%
X161280000Y-117700000D03*
%TD*%
D15*
%TO.P,J18,1,Pin_1*%
%TO.N,/LED_GND*%
X172920000Y-124960000D03*
D16*
%TO.P,J18,2,Pin_2*%
%TO.N,Net-(J18-Pad2)*%
X175460000Y-124960000D03*
%TO.P,J18,3,Pin_3*%
%TO.N,+5V*%
X178000000Y-124960000D03*
%TD*%
D15*
%TO.P,J3,1,Pin_1*%
%TO.N,/LED_GND*%
X172980000Y-111500000D03*
D16*
%TO.P,J3,2,Pin_2*%
%TO.N,Net-(J10-Pad2)*%
X175520000Y-111500000D03*
%TO.P,J3,3,Pin_3*%
%TO.N,+5V*%
X178060000Y-111500000D03*
%TD*%
D15*
%TO.P,J21,1,Pin_1*%
%TO.N,/LED_GND*%
X199170000Y-124960000D03*
D16*
%TO.P,J21,2,Pin_2*%
%TO.N,Net-(J21-Pad2)*%
X201710000Y-124960000D03*
%TO.P,J21,3,Pin_3*%
%TO.N,+5V*%
X204250000Y-124960000D03*
%TD*%
D33*
%TO.P,U1,1,REG3*%
%TO.N,Net-(C1-Pad1)*%
X195967500Y-139610000D03*
%TO.P,U1,2,CSP*%
%TO.N,Net-(C6-Pad2)*%
X195967500Y-140010000D03*
%TO.P,U1,3,REG2*%
%TO.N,Net-(C2-Pad1)*%
X195967500Y-140410000D03*
%TO.P,U1,4,CSN*%
%TO.N,GND*%
X195967500Y-140810000D03*
%TO.P,U1,5,VBATT*%
%TO.N,Net-(C3-Pad1)*%
X195967500Y-141210000D03*
%TO.P,U1,6,CELL2*%
%TO.N,Net-(C3-Pad2)*%
X195967500Y-141610000D03*
%TO.P,U1,7,CELL1*%
%TO.N,Net-(C5-Pad2)*%
X195967500Y-142010000D03*
%TO.P,U1,8,ALRT1*%
%TO.N,unconnected-(U1-Pad8)*%
X198942500Y-142010000D03*
%TO.P,U1,9,AIN1*%
%TO.N,Net-(R13-Pad2)*%
X198942500Y-141610000D03*
%TO.P,U1,10,AIN2*%
%TO.N,Net-(R14-Pad2)*%
X198942500Y-141210000D03*
%TO.P,U1,11,SCL/OD*%
%TO.N,Net-(R8-Pad2)*%
X198942500Y-140810000D03*
%TO.P,U1,12,SDA/DQ*%
%TO.N,Net-(R7-Pad1)*%
X198942500Y-140410000D03*
%TO.P,U1,13,CELLx*%
%TO.N,unconnected-(U1-Pad13)*%
X198942500Y-140010000D03*
%TO.P,U1,14,THRM*%
%TO.N,Net-(R13-Pad1)*%
X198942500Y-139610000D03*
D34*
%TO.P,U1,15,EP*%
%TO.N,GND*%
X197455000Y-140810000D03*
%TD*%
D15*
%TO.P,J22,1,Pin_1*%
%TO.N,/LED_GND*%
X207920000Y-124960000D03*
D16*
%TO.P,J22,2,Pin_2*%
%TO.N,Net-(J22-Pad2)*%
X210460000Y-124960000D03*
%TO.P,J22,3,Pin_3*%
%TO.N,+5V*%
X213000000Y-124960000D03*
%TD*%
D25*
%TO.P,R14,1*%
%TO.N,Net-(R13-Pad1)*%
X203012500Y-138900000D03*
%TO.P,R14,2*%
%TO.N,Net-(R14-Pad2)*%
X201187500Y-138900000D03*
%TD*%
D15*
%TO.P,J24,1,Pin_1*%
%TO.N,/LED_GND*%
X172920000Y-131750000D03*
D16*
%TO.P,J24,2,Pin_2*%
%TO.N,Net-(J19-Pad2)*%
X175460000Y-131750000D03*
%TO.P,J24,3,Pin_3*%
%TO.N,+5V*%
X178000000Y-131750000D03*
%TD*%
D25*
%TO.P,R16,1*%
%TO.N,Net-(R14-Pad2)*%
X203300000Y-135900000D03*
%TO.P,R16,2*%
%TO.N,GND*%
X201475000Y-135900000D03*
%TD*%
D13*
%TO.P,R9,1*%
%TO.N,+3V3*%
X152837500Y-118000000D03*
%TO.P,R9,2*%
%TO.N,/LED_DATA_LV_1*%
X154662500Y-118000000D03*
%TD*%
D15*
%TO.P,J7,1,Pin_1*%
%TO.N,/LED_GND*%
X207980000Y-111500000D03*
D16*
%TO.P,J7,2,Pin_2*%
%TO.N,Net-(J14-Pad2)*%
X210520000Y-111500000D03*
%TO.P,J7,3,Pin_3*%
%TO.N,+5V*%
X213060000Y-111500000D03*
%TD*%
D15*
%TO.P,J26,1,Pin_1*%
%TO.N,/LED_GND*%
X190420000Y-131730000D03*
D16*
%TO.P,J26,2,Pin_2*%
%TO.N,Net-(J21-Pad2)*%
X192960000Y-131730000D03*
%TO.P,J26,3,Pin_3*%
%TO.N,+5V*%
X195500000Y-131730000D03*
%TD*%
D25*
%TO.P,R6,1*%
%TO.N,Net-(Q1-Pad1)*%
X161600000Y-121500000D03*
%TO.P,R6,2*%
%TO.N,GND*%
X159775000Y-121500000D03*
%TD*%
D35*
%TO.P,R10,1*%
%TO.N,+5V*%
X151200000Y-112575000D03*
%TO.P,R10,2*%
%TO.N,/LED_DATA_1*%
X151200000Y-114400000D03*
%TD*%
D25*
%TO.P,R13,1*%
%TO.N,Net-(R13-Pad1)*%
X206912500Y-136100000D03*
%TO.P,R13,2*%
%TO.N,Net-(R13-Pad2)*%
X205087500Y-136100000D03*
%TD*%
D15*
%TO.P,J28,1,Pin_1*%
%TO.N,/LED_GND*%
X207920000Y-131750000D03*
D16*
%TO.P,J28,2,Pin_2*%
%TO.N,unconnected-(J28-Pad2)*%
X210460000Y-131750000D03*
%TO.P,J28,3,Pin_3*%
%TO.N,+5V*%
X213000000Y-131750000D03*
%TD*%
D14*
%TO.P,C2,1*%
%TO.N,Net-(C2-Pad1)*%
X196600000Y-136700000D03*
%TO.P,C2,2*%
%TO.N,GND*%
X198325000Y-136700000D03*
%TD*%
D25*
%TO.P,R15,1*%
%TO.N,Net-(R13-Pad2)*%
X203012500Y-137400000D03*
%TO.P,R15,2*%
%TO.N,GND*%
X201187500Y-137400000D03*
%TD*%
D36*
%TO.N,GND*%
X201000000Y-146100000D03*
X158700000Y-117700000D03*
D37*
X199500000Y-137400000D03*
D36*
X159800000Y-118700000D03*
X158700000Y-116600000D03*
X159800000Y-116600000D03*
X197455000Y-143155000D03*
X200000000Y-145100000D03*
X200000000Y-146100000D03*
X158700000Y-118700000D03*
D37*
X158900000Y-121500000D03*
D36*
X202300000Y-144600000D03*
D37*
X203900000Y-140900000D03*
D36*
X159800000Y-117700000D03*
D37*
X200500000Y-135200000D03*
D36*
X202300000Y-145600000D03*
X201000000Y-145100000D03*
D37*
%TO.N,Net-(C6-Pad2)*%
X194800000Y-143400000D03*
X195100000Y-139700000D03*
D36*
%TO.N,/LED_GND*%
X164230000Y-113980000D03*
X162980000Y-113980000D03*
X165600000Y-109000000D03*
X162700000Y-112800000D03*
X162600000Y-111400000D03*
X165500000Y-114000000D03*
X162570000Y-110170000D03*
X162880000Y-109020000D03*
X164230000Y-109020000D03*
D37*
%TO.N,/LED_DATA_1*%
X154800000Y-113800000D03*
%TO.N,+5V*%
X152100000Y-109700000D03*
%TO.N,+3V3*%
X153700000Y-110400000D03*
%TO.N,/GPS_RXD*%
X162900000Y-127600000D03*
%TO.N,/GPS_TXD*%
X162610000Y-128810000D03*
%TO.N,/LED_PWR_EN*%
X155500000Y-115800000D03*
%TO.N,/LED_DATA_LV_1*%
X159400000Y-107400000D03*
%TO.N,/LED_DATA_LV_2*%
X159700000Y-106800000D03*
%TO.N,/LED_DATA_2*%
X152900000Y-109400000D03*
D38*
%TO.N,Net-(R7-Pad1)*%
X177800000Y-137800000D03*
D37*
X199800000Y-140100000D03*
D38*
%TO.N,Net-(R8-Pad2)*%
X173000000Y-138300000D03*
D37*
X200100000Y-140700000D03*
%TO.N,Net-(R13-Pad1)*%
X199300000Y-138800000D03*
X204400000Y-138900000D03*
%TO.N,Net-(R13-Pad2)*%
X204500000Y-137900000D03*
X199800000Y-142300000D03*
%TO.N,Net-(R14-Pad2)*%
X202400000Y-139800000D03*
X200300000Y-141700000D03*
%TD*%
D39*
%TO.N,Net-(C1-Pad1)*%
X195967500Y-139610000D02*
X195967500Y-138832500D01*
X195967500Y-138832500D02*
X196600000Y-138200000D01*
D40*
%TO.N,GND*%
X199400000Y-145100000D02*
X197455000Y-143155000D01*
D39*
X159775000Y-121500000D02*
X158900000Y-121500000D01*
X202825000Y-140900000D02*
X203900000Y-140900000D01*
D40*
X200000000Y-145100000D02*
X201000000Y-145100000D01*
X160280000Y-118700000D02*
X161280000Y-117700000D01*
X198500000Y-144200000D02*
X197455000Y-143155000D01*
X197455000Y-143155000D02*
X197455000Y-140810000D01*
X159050000Y-116950000D02*
X159800000Y-117700000D01*
X158700000Y-116600000D02*
X159050000Y-116950000D01*
D39*
X198325000Y-138200000D02*
X198700000Y-138200000D01*
D40*
X198500000Y-145100000D02*
X198500000Y-144200000D01*
X159800000Y-117700000D02*
X159800000Y-116600000D01*
X202300000Y-144600000D02*
X202300000Y-145600000D01*
X199500000Y-146100000D02*
X200000000Y-146100000D01*
X158700000Y-117700000D02*
X158700000Y-116600000D01*
X159800000Y-118700000D02*
X160280000Y-118700000D01*
X159800000Y-117700000D02*
X158700000Y-117700000D01*
X161280000Y-117700000D02*
X159800000Y-117700000D01*
X159800000Y-117700000D02*
X159800000Y-118700000D01*
D39*
X198800000Y-136700000D02*
X199500000Y-137400000D01*
D40*
X201000000Y-146100000D02*
X201800000Y-146100000D01*
X201800000Y-145100000D02*
X202300000Y-144600000D01*
X198500000Y-145100000D02*
X199500000Y-146100000D01*
X158700000Y-117700000D02*
X158700000Y-118700000D01*
X198500000Y-145100000D02*
X200000000Y-145100000D01*
D39*
X201187500Y-137400000D02*
X201187500Y-136187500D01*
D40*
X201800000Y-146100000D02*
X202300000Y-145600000D01*
X200000000Y-146100000D02*
X201000000Y-146100000D01*
X158700000Y-118700000D02*
X159800000Y-118700000D01*
X201000000Y-145100000D02*
X201800000Y-145100000D01*
D39*
X198325000Y-136700000D02*
X198800000Y-136700000D01*
D40*
X200000000Y-145100000D02*
X199400000Y-145100000D01*
D39*
X201187500Y-136187500D02*
X201475000Y-135900000D01*
X201475000Y-135900000D02*
X201200000Y-135900000D01*
D40*
X201000000Y-145100000D02*
X201000000Y-146100000D01*
X159800000Y-116600000D02*
X158700000Y-116600000D01*
X159800000Y-116600000D02*
X160180000Y-116600000D01*
X160180000Y-116600000D02*
X161280000Y-117700000D01*
D39*
X198700000Y-138200000D02*
X199500000Y-137400000D01*
D40*
X200000000Y-145100000D02*
X200000000Y-146100000D01*
D39*
X201200000Y-135900000D02*
X200500000Y-135200000D01*
X195967500Y-140810000D02*
X197455000Y-140810000D01*
%TO.N,Net-(C2-Pad1)*%
X194500000Y-137700000D02*
X195500000Y-136700000D01*
X194500000Y-140100000D02*
X194500000Y-137700000D01*
X194810000Y-140410000D02*
X194500000Y-140100000D01*
X195967500Y-140410000D02*
X194810000Y-140410000D01*
X195500000Y-136700000D02*
X196600000Y-136700000D01*
D41*
%TO.N,Net-(C3-Pad1)*%
X191075000Y-137500000D02*
X191075000Y-137325000D01*
X192000000Y-136400000D02*
X194100000Y-136400000D01*
X199200000Y-135400000D02*
X200200000Y-136400000D01*
X195900000Y-135400000D02*
X199200000Y-135400000D01*
X194900000Y-136400000D02*
X195900000Y-135400000D01*
D39*
X195967500Y-141210000D02*
X194510000Y-141210000D01*
D41*
X191075000Y-137325000D02*
X192000000Y-136400000D01*
X201000000Y-141000000D02*
X201100000Y-140900000D01*
D39*
X194510000Y-141210000D02*
X194100000Y-140800000D01*
X194100000Y-140800000D02*
X194100000Y-136400000D01*
D41*
X200200000Y-136400000D02*
X200200000Y-139500000D01*
X201000000Y-142900000D02*
X201000000Y-141000000D01*
X194100000Y-136400000D02*
X194900000Y-136400000D01*
X200200000Y-139500000D02*
X201100000Y-140400000D01*
X201100000Y-140400000D02*
X201100000Y-140900000D01*
D39*
%TO.N,Net-(C3-Pad2)*%
X192800000Y-139400000D02*
X192900000Y-139500000D01*
X192800000Y-137500000D02*
X192800000Y-139400000D01*
X195967500Y-141610000D02*
X193010000Y-141610000D01*
X193010000Y-141610000D02*
X192900000Y-141500000D01*
X192900000Y-139500000D02*
X192900000Y-141500000D01*
%TO.N,Net-(C5-Pad2)*%
X192700000Y-145500000D02*
X192700000Y-143700000D01*
X194390000Y-142010000D02*
X192900000Y-143500000D01*
X191175000Y-141500000D02*
X191175000Y-141775000D01*
X192700000Y-143700000D02*
X192900000Y-143500000D01*
X195967500Y-142010000D02*
X194390000Y-142010000D01*
X191175000Y-141775000D02*
X192900000Y-143500000D01*
%TO.N,Net-(C6-Pad2)*%
X190975000Y-145500000D02*
X190975000Y-147625000D01*
D42*
X195400000Y-146900000D02*
X195400000Y-145100000D01*
X190600000Y-148000000D02*
X194300000Y-148000000D01*
D39*
X195210000Y-140010000D02*
X195000000Y-139800000D01*
X194800000Y-143400000D02*
X195400000Y-144000000D01*
D42*
X186200000Y-152400000D02*
X190600000Y-148000000D01*
D39*
X195400000Y-144000000D02*
X195400000Y-145100000D01*
X190975000Y-147625000D02*
X190600000Y-148000000D01*
X195000000Y-139800000D02*
X195100000Y-139700000D01*
D42*
X194300000Y-148000000D02*
X195400000Y-146900000D01*
D39*
X195967500Y-140010000D02*
X195210000Y-140010000D01*
D42*
%TO.N,/LED_GND*%
X161580000Y-113980000D02*
X159000000Y-111400000D01*
D40*
X159000000Y-111400000D02*
X160400000Y-112800000D01*
X162600000Y-111400000D02*
X162600000Y-112700000D01*
D42*
X165600000Y-109000000D02*
X165400000Y-109000000D01*
D40*
X162570000Y-110170000D02*
X164230000Y-110170000D01*
D42*
X164230000Y-112730000D02*
X164230000Y-110170000D01*
X159000000Y-111400000D02*
X162100000Y-111400000D01*
X164230000Y-109020000D02*
X161380000Y-109020000D01*
D40*
X162600000Y-111400000D02*
X162600000Y-110200000D01*
X160400000Y-112800000D02*
X162700000Y-112800000D01*
X164230000Y-110170000D02*
X164230000Y-109020000D01*
X162100000Y-111400000D02*
X162600000Y-111400000D01*
X162600000Y-112700000D02*
X162700000Y-112800000D01*
D42*
X164230000Y-113980000D02*
X165480000Y-113980000D01*
X165480000Y-113980000D02*
X165500000Y-114000000D01*
X165600000Y-109000000D02*
X165980000Y-109020000D01*
X165500000Y-114000000D02*
X164230000Y-112730000D01*
D40*
X162880000Y-109020000D02*
X161380000Y-109020000D01*
D42*
X164230000Y-113980000D02*
X161580000Y-113980000D01*
D40*
X164150000Y-111400000D02*
X164230000Y-111480000D01*
D42*
X165400000Y-109000000D02*
X164230000Y-110170000D01*
X165980000Y-109020000D02*
X164230000Y-109020000D01*
D40*
X159000000Y-111400000D02*
X160230000Y-110170000D01*
X162700000Y-112800000D02*
X164400000Y-112800000D01*
X161380000Y-109020000D02*
X159000000Y-111400000D01*
D42*
X164230000Y-109020000D02*
X162880000Y-109020000D01*
D40*
X160230000Y-110170000D02*
X162570000Y-110170000D01*
X164230000Y-111480000D02*
X164230000Y-110170000D01*
D42*
X162600000Y-111400000D02*
X164150000Y-111400000D01*
D40*
X162600000Y-110200000D02*
X162570000Y-110170000D01*
D39*
%TO.N,/LED_DATA_1*%
X151200000Y-117609460D02*
X152365060Y-118774520D01*
X151200000Y-114400000D02*
X151200000Y-117609460D01*
X152365060Y-118774520D02*
X153309940Y-118774520D01*
X153750000Y-118334460D02*
X153750000Y-114312500D01*
X154287500Y-114312500D02*
X154800000Y-113800000D01*
X153750000Y-114312500D02*
X154287500Y-114312500D01*
X153309940Y-118774520D02*
X153750000Y-118334460D01*
%TO.N,+5V*%
X151112500Y-110475000D02*
X151125000Y-110475000D01*
X151200000Y-110562500D02*
X151112500Y-110475000D01*
X151125000Y-110475000D02*
X152000000Y-109600000D01*
X151200000Y-112575000D02*
X151200000Y-110562500D01*
X152000000Y-109600000D02*
X152100000Y-109700000D01*
D41*
%TO.N,Net-(J29-Pad2)*%
X189200000Y-141200000D02*
X186900000Y-141200000D01*
X190900000Y-139500000D02*
X189200000Y-141200000D01*
%TO.N,Net-(J29-Pad3)*%
X187100000Y-143500000D02*
X186900000Y-143700000D01*
X190900000Y-143500000D02*
X187100000Y-143500000D01*
D39*
%TO.N,+3V3*%
X152837500Y-112500000D02*
X152837500Y-110837500D01*
X153350000Y-110750000D02*
X153700000Y-110400000D01*
X152837500Y-112500000D02*
X152837500Y-116150000D01*
X152837500Y-110837500D02*
X152750000Y-110750000D01*
X152750000Y-110750000D02*
X153350000Y-110750000D01*
X152837500Y-118000000D02*
X152837500Y-116225000D01*
X152837500Y-116150000D02*
X152800000Y-116187500D01*
X152837500Y-116225000D02*
X152800000Y-116187500D01*
%TO.N,/I2C_SDA*%
X167830000Y-142300000D02*
X177100000Y-142300000D01*
X177900000Y-139822500D02*
X174887500Y-136810000D01*
X170500000Y-110300000D02*
X170500000Y-119100000D01*
X161600000Y-136070000D02*
X166230000Y-140700000D01*
X162900000Y-107500000D02*
X167700000Y-107500000D01*
X160915000Y-105515000D02*
X162900000Y-107500000D01*
X167700000Y-107500000D02*
X170500000Y-110300000D01*
X177900000Y-141500000D02*
X177900000Y-139822500D01*
X177100000Y-142300000D02*
X177900000Y-141500000D01*
X169500000Y-120100000D02*
X164900000Y-120100000D01*
X160915000Y-104775000D02*
X160915000Y-105515000D01*
X164900000Y-120100000D02*
X161600000Y-123400000D01*
X166230000Y-140700000D02*
X167830000Y-142300000D01*
X170500000Y-119100000D02*
X169500000Y-120100000D01*
X161600000Y-123400000D02*
X161600000Y-136070000D01*
%TO.N,/I2C_SCL*%
X164000000Y-107100000D02*
X167900000Y-107100000D01*
X162000000Y-135900000D02*
X165365000Y-139265000D01*
X170900000Y-110100000D02*
X170900000Y-119300000D01*
X168770000Y-140700000D02*
X171200000Y-138270000D01*
X163455000Y-106555000D02*
X164000000Y-107100000D01*
X165365000Y-139265000D02*
X167335000Y-139265000D01*
X169700000Y-120500000D02*
X165100000Y-120500000D01*
X167335000Y-139265000D02*
X168770000Y-140700000D01*
X170900000Y-119300000D02*
X169700000Y-120500000D01*
X162000000Y-123600000D02*
X162000000Y-135900000D01*
X171200000Y-138270000D02*
X171200000Y-136800000D01*
X167900000Y-107100000D02*
X170900000Y-110100000D01*
X165100000Y-120500000D02*
X162000000Y-123600000D01*
X163455000Y-104775000D02*
X163455000Y-106555000D01*
%TO.N,/GPS_RXD*%
X169000000Y-127600000D02*
X171300000Y-125300000D01*
X171300000Y-125300000D02*
X171300000Y-109800000D01*
X171300000Y-109800000D02*
X167250000Y-105750000D01*
X167250000Y-103490000D02*
X165995000Y-102235000D01*
X162900000Y-127600000D02*
X169000000Y-127600000D01*
X167250000Y-105750000D02*
X167250000Y-103490000D01*
%TO.N,/GPS_TXD*%
X168535000Y-102235000D02*
X168535000Y-102535000D01*
X163420000Y-128000000D02*
X162610000Y-128810000D01*
X169800000Y-103800000D02*
X169800000Y-107700000D01*
X169200000Y-128000000D02*
X163420000Y-128000000D01*
X168535000Y-102535000D02*
X169800000Y-103800000D01*
X171700000Y-109600000D02*
X171700000Y-125500000D01*
X171700000Y-125500000D02*
X169200000Y-128000000D01*
X169800000Y-107700000D02*
X171700000Y-109600000D01*
%TO.N,/LED_PWR_EN*%
X155500000Y-115800000D02*
X161700000Y-115800000D01*
X162400000Y-116500000D02*
X162400000Y-119175000D01*
X161700000Y-115800000D02*
X162400000Y-116500000D01*
X162400000Y-119175000D02*
X161575000Y-120000000D01*
%TO.N,/LED_DATA_LV_1*%
X155500000Y-107765006D02*
X155500000Y-114000000D01*
X155500000Y-114000000D02*
X154700000Y-114800000D01*
X154700000Y-114800000D02*
X154700000Y-116187500D01*
X159400000Y-107400000D02*
X155865006Y-107400000D01*
X155865006Y-107400000D02*
X155500000Y-107765006D01*
X154662500Y-118000000D02*
X154662500Y-116225000D01*
X154662500Y-116225000D02*
X154700000Y-116187500D01*
%TO.N,/LED_DATA_LV_2*%
X155700000Y-107000000D02*
X154650000Y-108050000D01*
X155900000Y-106800000D02*
X159700000Y-106800000D01*
X154662500Y-110762500D02*
X154650000Y-110750000D01*
X154650000Y-108050000D02*
X154650000Y-110750000D01*
X154662500Y-112500000D02*
X154662500Y-110762500D01*
X155700000Y-107000000D02*
X155900000Y-106800000D01*
%TO.N,/LED_DATA_2*%
X151112500Y-108650000D02*
X152950000Y-108650000D01*
X153475000Y-108650000D02*
X153700000Y-108875000D01*
X152950000Y-109350000D02*
X152950000Y-108650000D01*
X152950000Y-108650000D02*
X153475000Y-108650000D01*
X152900000Y-109400000D02*
X152950000Y-109350000D01*
%TO.N,Net-(Q1-Pad1)*%
X157500000Y-120000000D02*
X156720000Y-119220000D01*
X156720000Y-119220000D02*
X156720000Y-117700000D01*
X159750000Y-120000000D02*
X160100000Y-120000000D01*
X159750000Y-120000000D02*
X157500000Y-120000000D01*
X160100000Y-120000000D02*
X161600000Y-121500000D01*
%TO.N,Net-(R7-Pad1)*%
X176810000Y-136810000D02*
X177800000Y-137800000D01*
X199800000Y-140100000D02*
X199490000Y-140410000D01*
X176712500Y-136810000D02*
X176810000Y-136810000D01*
X199490000Y-140410000D02*
X198942500Y-140410000D01*
%TO.N,Net-(R8-Pad2)*%
X173025000Y-136800000D02*
X173025000Y-138275000D01*
X199990000Y-140810000D02*
X198942500Y-140810000D01*
X200100000Y-140700000D02*
X199990000Y-140810000D01*
X173025000Y-138275000D02*
X173000000Y-138300000D01*
%TO.N,Net-(R13-Pad1)*%
X199300000Y-139252500D02*
X198942500Y-139610000D01*
X199300000Y-138800000D02*
X199300000Y-139252500D01*
X206912500Y-136387500D02*
X206912500Y-136100000D01*
X204400000Y-138900000D02*
X206912500Y-136387500D01*
X204400000Y-138900000D02*
X203012500Y-138900000D01*
D40*
%TO.N,Net-(J1-Pad2)*%
X203950000Y-142900000D02*
X207000000Y-139850000D01*
X203000000Y-142900000D02*
X203950000Y-142900000D01*
D39*
%TO.N,Net-(R13-Pad2)*%
X198942500Y-141610000D02*
X199510000Y-141610000D01*
X204000000Y-137400000D02*
X205087500Y-136312500D01*
X199510000Y-141610000D02*
X199600000Y-141700000D01*
X199600000Y-141700000D02*
X199700000Y-141800000D01*
X204500000Y-137900000D02*
X204000000Y-137400000D01*
X199700000Y-141800000D02*
X199700000Y-142200000D01*
X203012500Y-137400000D02*
X204000000Y-137400000D01*
X199700000Y-142200000D02*
X199800000Y-142300000D01*
X205087500Y-136312500D02*
X205087500Y-136100000D01*
%TO.N,Net-(R14-Pad2)*%
X202400000Y-139800000D02*
X202087500Y-139800000D01*
X202100000Y-136900000D02*
X203100000Y-135900000D01*
X198942500Y-141210000D02*
X199710000Y-141210000D01*
X199710000Y-141210000D02*
X200200000Y-141700000D01*
X200200000Y-141700000D02*
X200300000Y-141700000D01*
X202087500Y-139800000D02*
X201187500Y-138900000D01*
X202100000Y-138100000D02*
X202100000Y-136900000D01*
X201300000Y-138900000D02*
X202100000Y-138100000D01*
X201187500Y-138900000D02*
X201300000Y-138900000D01*
X203100000Y-135900000D02*
X203300000Y-135900000D01*
%TD*%
M02*
