M48
; DRILL file {KiCad (6.0.1)} date Thu Mar 24 21:22:16 2022
; FORMAT={-:-/ absolute / inch / decimal}
; #@! TF.CreationDate,2022-03-24T21:22:16+00:00
; #@! TF.GenerationSoftware,Kicad,Pcbnew,(6.0.1)
; #@! TF.FileFunction,Plated,1,4,PTH
FMAT,2
INCH
; #@! TA.AperFunction,Plated,PTH,ViaDrill
T1C0.0079
; #@! TA.AperFunction,Plated,PTH,ViaDrill
T2C0.0157
; #@! TA.AperFunction,Plated,PTH,ViaDrill
T3C0.0236
; #@! TA.AperFunction,Plated,PTH,ComponentDrill
T4C0.0374
; #@! TA.AperFunction,Plated,PTH,ComponentDrill
T5C0.0394
; #@! TA.AperFunction,Plated,PTH,ComponentDrill
T6C0.0469
; #@! TA.AperFunction,Plated,PTH,ComponentDrill
T7C0.0551
; #@! TA.AperFunction,Plated,PTH,ComponentDrill
T8C0.1063
%
G90
G05
T1
X5.9882Y-4.3189
X6.0197Y-4.3071
X6.0512Y-4.3465
X6.0945Y-4.4803
X6.122Y-4.5591
X6.2559Y-4.7835
X6.2756Y-4.2283
X6.2874Y-4.2047
X6.402Y-5.0713
X6.4134Y-5.0236
X7.6693Y-5.6457
X7.6811Y-5.5
X7.8465Y-5.4646
X7.8543Y-5.4094
X7.8661Y-5.5157
X7.8661Y-5.6024
X7.878Y-5.5394
X7.8858Y-5.5787
X7.8937Y-5.3228
X7.9685Y-5.5039
X8.0276Y-5.5472
X8.0472Y-5.4685
X8.0512Y-5.4291
T2
X6.811Y-5.4449
X7.0Y-5.4252
T3
X6.248Y-4.5906
X6.248Y-4.6339
X6.248Y-4.6732
X6.2913Y-4.5906
X6.2913Y-4.6339
X6.2913Y-4.6732
X6.4004Y-4.3374
X6.4016Y-4.3858
X6.4055Y-4.4409
X6.4126Y-4.2921
X6.4165Y-4.4874
X6.4657Y-4.2921
X6.4657Y-4.4874
X6.5157Y-4.4882
X6.5197Y-4.2913
X7.7738Y-5.636
X7.874Y-5.7126
X7.874Y-5.752
X7.9134Y-5.7126
X7.9134Y-5.752
X7.9646Y-5.6929
X7.9646Y-5.7323
T4
X7.3583Y-5.4606
X7.3583Y-5.5591
X7.3583Y-5.6575
X7.3583Y-5.7559
T5
X6.2352Y-4.025
X6.2352Y-4.125
X6.2992Y-4.874
X6.2992Y-4.974
X6.2992Y-5.074
X6.2992Y-5.174
X6.2992Y-5.274
X6.2992Y-5.374
X6.3352Y-4.025
X6.3352Y-4.125
X6.4352Y-4.025
X6.4352Y-4.125
X6.4445Y-5.5394
X6.4445Y-6.0394
X6.5352Y-4.025
X6.5352Y-4.125
X6.5445Y-5.5394
X6.5445Y-6.0394
X6.6352Y-4.025
X6.6352Y-4.125
X6.6445Y-5.5394
X6.6445Y-6.0394
X6.7352Y-4.025
X6.7352Y-4.125
X6.7445Y-5.5394
X6.7445Y-6.0394
X6.8352Y-4.025
X6.8352Y-4.125
X6.8445Y-5.5394
X6.8445Y-6.0394
X6.9352Y-4.025
X6.9352Y-4.125
X6.9445Y-5.5394
X6.9445Y-6.0394
X7.0352Y-4.025
X7.0352Y-4.125
X7.1352Y-4.025
X7.1352Y-4.125
X7.2352Y-4.025
X7.2352Y-4.125
X7.3352Y-4.025
X7.3352Y-4.125
X7.4352Y-4.025
X7.4352Y-4.125
X7.5352Y-4.025
X7.5352Y-4.125
X7.6352Y-4.025
X7.6352Y-4.125
X7.7352Y-4.025
X7.7352Y-4.125
X7.8352Y-4.025
X7.8352Y-4.125
X7.9352Y-4.025
X7.9352Y-4.125
X8.0352Y-4.025
X8.0352Y-4.125
X8.1352Y-4.025
X8.1352Y-4.125
T6
X6.4657Y-4.389
X6.4657Y-4.6555
X6.4657Y-4.9205
X6.4657Y-5.187
X6.5657Y-4.389
X6.5657Y-4.6555
X6.5657Y-4.9205
X6.5657Y-5.187
X6.6657Y-4.389
X6.6657Y-4.6555
X6.6657Y-4.9205
X6.6657Y-5.187
X6.8079Y-4.9197
X6.8079Y-5.187
X6.8102Y-4.3898
X6.8102Y-4.6555
X6.9079Y-4.9197
X6.9079Y-5.187
X6.9102Y-4.3898
X6.9102Y-4.6555
X7.0079Y-4.9197
X7.0079Y-5.187
X7.0102Y-4.3898
X7.0102Y-4.6555
X7.1524Y-4.9197
X7.1524Y-5.187
X7.1547Y-4.389
X7.1547Y-4.6555
X7.2524Y-4.9197
X7.2524Y-5.187
X7.2547Y-4.389
X7.2547Y-4.6555
X7.3524Y-4.9197
X7.3524Y-5.187
X7.3547Y-4.389
X7.3547Y-4.6555
X7.4969Y-4.9197
X7.4969Y-5.1862
X7.4992Y-4.3898
X7.4992Y-4.6563
X7.5969Y-4.9197
X7.5969Y-5.1862
X7.5992Y-4.3898
X7.5992Y-4.6563
X7.6969Y-4.9197
X7.6969Y-5.1862
X7.6992Y-4.3898
X7.6992Y-4.6563
X7.8413Y-4.9197
X7.8413Y-5.1862
X7.8437Y-4.389
X7.8437Y-4.6555
X7.9413Y-4.9197
X7.9413Y-5.1862
X7.9437Y-4.389
X7.9437Y-4.6555
X8.0413Y-4.9197
X8.0413Y-5.1862
X8.0437Y-4.389
X8.0437Y-4.6555
X8.1858Y-4.9197
X8.1858Y-5.187
X8.1882Y-4.3898
X8.1882Y-4.6563
X8.2858Y-4.9197
X8.2858Y-5.187
X8.2882Y-4.3898
X8.2882Y-4.6563
X8.3858Y-4.9197
X8.3858Y-5.187
X8.3882Y-4.3898
X8.3882Y-4.6563
T7
X8.1496Y-5.5059
X8.1496Y-5.7224
X8.315Y-5.5059
X8.315Y-5.7224
T8
X7.3307Y-6.0
X7.5276Y-6.0
X7.8031Y-5.9961
X8.0Y-5.9961
T0
M30
