%TF.GenerationSoftware,KiCad,Pcbnew,(6.0.1)*%
%TF.CreationDate,2022-03-24T21:22:16+00:00*%
%TF.ProjectId,isopod_distro,69736f70-6f64-45f6-9469-7374726f2e6b,rev?*%
%TF.SameCoordinates,Original*%
%TF.FileFunction,Soldermask,Bot*%
%TF.FilePolarity,Negative*%
%FSLAX46Y46*%
G04 Gerber Fmt 4.6, Leading zero omitted, Abs format (unit mm)*
G04 Created by KiCad (PCBNEW (6.0.1)) date 2022-03-24 21:22:16*
%MOMM*%
%LPD*%
G01*
G04 APERTURE LIST*
G04 Aperture macros list*
%AMRoundRect*
0 Rectangle with rounded corners*
0 $1 Rounding radius*
0 $2 $3 $4 $5 $6 $7 $8 $9 X,Y pos of 4 corners*
0 Add a 4 corners polygon primitive as box body*
4,1,4,$2,$3,$4,$5,$6,$7,$8,$9,$2,$3,0*
0 Add four circle primitives for the rounded corners*
1,1,$1+$1,$2,$3*
1,1,$1+$1,$4,$5*
1,1,$1+$1,$6,$7*
1,1,$1+$1,$8,$9*
0 Add four rect primitives between the rounded corners*
20,1,$1+$1,$2,$3,$4,$5,0*
20,1,$1+$1,$4,$5,$6,$7,0*
20,1,$1+$1,$6,$7,$8,$9,0*
20,1,$1+$1,$8,$9,$2,$3,0*%
%AMFreePoly0*
4,1,22,0.550000,-0.750000,0.000000,-0.750000,0.000000,-0.745033,-0.079941,-0.743568,-0.215256,-0.701293,-0.333266,-0.622738,-0.424486,-0.514219,-0.481581,-0.384460,-0.499164,-0.250000,-0.500000,-0.250000,-0.500000,0.250000,-0.499164,0.250000,-0.499963,0.256109,-0.478152,0.396186,-0.417904,0.524511,-0.324060,0.630769,-0.204165,0.706417,-0.067858,0.745374,0.000000,0.744959,0.000000,0.750000,
0.550000,0.750000,0.550000,-0.750000,0.550000,-0.750000,$1*%
%AMFreePoly1*
4,1,20,0.000000,0.744959,0.073905,0.744508,0.209726,0.703889,0.328688,0.626782,0.421226,0.519385,0.479903,0.390333,0.500000,0.250000,0.500000,-0.250000,0.499851,-0.262216,0.476331,-0.402017,0.414519,-0.529596,0.319384,-0.634700,0.198574,-0.708877,0.061801,-0.746166,0.000000,-0.745033,0.000000,-0.750000,-0.550000,-0.750000,-0.550000,0.750000,0.000000,0.750000,0.000000,0.744959,
0.000000,0.744959,$1*%
G04 Aperture macros list end*
%ADD10RoundRect,0.250001X-1.099999X-1.399999X1.099999X-1.399999X1.099999X1.399999X-1.099999X1.399999X0*%
%ADD11O,2.700000X3.300000*%
%ADD12RoundRect,0.250000X-0.620000X-0.845000X0.620000X-0.845000X0.620000X0.845000X-0.620000X0.845000X0*%
%ADD13O,1.740000X2.190000*%
%ADD14C,2.700000*%
%ADD15R,1.700000X1.700000*%
%ADD16O,1.700000X1.700000*%
%ADD17R,3.800000X3.800000*%
%ADD18C,3.800000*%
%ADD19C,2.000000*%
%ADD20C,3.500000*%
%ADD21C,1.200000*%
%ADD22RoundRect,0.250000X-0.725000X0.600000X-0.725000X-0.600000X0.725000X-0.600000X0.725000X0.600000X0*%
%ADD23O,1.950000X1.700000*%
%ADD24FreePoly0,0.000000*%
%ADD25R,1.000000X1.500000*%
%ADD26FreePoly1,0.000000*%
G04 APERTURE END LIST*
D10*
%TO.C,J8*%
X207000000Y-139850000D03*
D11*
X211200000Y-139850000D03*
X207000000Y-145350000D03*
X211200000Y-145350000D03*
%TD*%
D12*
%TO.C,J23*%
X164230000Y-131750000D03*
D13*
X166770000Y-131750000D03*
X169310000Y-131750000D03*
%TD*%
D12*
%TO.C,J15*%
X207980000Y-118270000D03*
D13*
X210520000Y-118270000D03*
X213060000Y-118270000D03*
%TD*%
D14*
%TO.C,H4*%
X211500000Y-103500000D03*
%TD*%
D15*
%TO.C,J30*%
X158375000Y-104775000D03*
D16*
X158375000Y-102235000D03*
X160915000Y-104775000D03*
X160915000Y-102235000D03*
X163455000Y-104775000D03*
X163455000Y-102235000D03*
X165995000Y-104775000D03*
X165995000Y-102235000D03*
X168535000Y-104775000D03*
X168535000Y-102235000D03*
X171075000Y-104775000D03*
X171075000Y-102235000D03*
X173615000Y-104775000D03*
X173615000Y-102235000D03*
X176155000Y-104775000D03*
X176155000Y-102235000D03*
X178695000Y-104775000D03*
X178695000Y-102235000D03*
X181235000Y-104775000D03*
X181235000Y-102235000D03*
X183775000Y-104775000D03*
X183775000Y-102235000D03*
X186315000Y-104775000D03*
X186315000Y-102235000D03*
X188855000Y-104775000D03*
X188855000Y-102235000D03*
X191395000Y-104775000D03*
X191395000Y-102235000D03*
X193935000Y-104775000D03*
X193935000Y-102235000D03*
X196475000Y-104775000D03*
X196475000Y-102235000D03*
X199015000Y-104775000D03*
X199015000Y-102235000D03*
X201555000Y-104775000D03*
X201555000Y-102235000D03*
X204095000Y-104775000D03*
X204095000Y-102235000D03*
X206635000Y-104775000D03*
X206635000Y-102235000D03*
%TD*%
D12*
%TO.C,J11*%
X172980000Y-118250000D03*
D13*
X175520000Y-118250000D03*
X178060000Y-118250000D03*
%TD*%
D17*
%TO.C,J16*%
X186200000Y-152400000D03*
D18*
X191200000Y-152400000D03*
%TD*%
D12*
%TO.C,J14*%
X199230000Y-118250000D03*
D13*
X201770000Y-118250000D03*
X204310000Y-118250000D03*
%TD*%
D12*
%TO.C,J13*%
X190480000Y-118270000D03*
D13*
X193020000Y-118270000D03*
X195560000Y-118270000D03*
%TD*%
D17*
%TO.C,J1*%
X198200000Y-152300000D03*
D18*
X203200000Y-152300000D03*
%TD*%
D12*
%TO.C,J19*%
X181670000Y-124960000D03*
D13*
X184210000Y-124960000D03*
X186750000Y-124960000D03*
%TD*%
D12*
%TO.C,J2*%
X164230000Y-111480000D03*
D13*
X166770000Y-111480000D03*
X169310000Y-111480000D03*
%TD*%
D12*
%TO.C,J25*%
X181670000Y-131750000D03*
D13*
X184210000Y-131750000D03*
X186750000Y-131750000D03*
%TD*%
D19*
%TO.C,U2*%
X160000000Y-136500000D03*
X160000000Y-133960000D03*
X160000000Y-131420000D03*
X160000000Y-128880000D03*
X160000000Y-126340000D03*
X160000000Y-123800000D03*
%TD*%
D20*
%TO.C,U3*%
X159880000Y-153400000D03*
X180200000Y-153400000D03*
X180200000Y-140700000D03*
X159880000Y-140700000D03*
D19*
X176390000Y-140700000D03*
X173850000Y-140700000D03*
X171310000Y-140700000D03*
X168770000Y-140700000D03*
X166230000Y-140700000D03*
X163690000Y-140700000D03*
X176390000Y-153400000D03*
X173850000Y-153400000D03*
X171310000Y-153400000D03*
X168770000Y-153400000D03*
X166230000Y-153400000D03*
X163690000Y-153400000D03*
%TD*%
D12*
%TO.C,J4*%
X181730000Y-111480000D03*
D13*
X184270000Y-111480000D03*
X186810000Y-111480000D03*
%TD*%
D21*
%TO.C,J29*%
X184900000Y-137100000D03*
D22*
X186900000Y-138700000D03*
D23*
X186900000Y-141200000D03*
X186900000Y-143700000D03*
X186900000Y-146200000D03*
%TD*%
D12*
%TO.C,J17*%
X164230000Y-124980000D03*
D13*
X166770000Y-124980000D03*
X169310000Y-124980000D03*
%TD*%
D12*
%TO.C,J27*%
X199170000Y-131730000D03*
D13*
X201710000Y-131730000D03*
X204250000Y-131730000D03*
%TD*%
D12*
%TO.C,J6*%
X199230000Y-111480000D03*
D13*
X201770000Y-111480000D03*
X204310000Y-111480000D03*
%TD*%
D12*
%TO.C,J20*%
X190420000Y-124960000D03*
D13*
X192960000Y-124960000D03*
X195500000Y-124960000D03*
%TD*%
D12*
%TO.C,J12*%
X181730000Y-118250000D03*
D13*
X184270000Y-118250000D03*
X186810000Y-118250000D03*
%TD*%
D12*
%TO.C,J5*%
X190480000Y-111500000D03*
D13*
X193020000Y-111500000D03*
X195560000Y-111500000D03*
%TD*%
D14*
%TO.C,H1*%
X153500000Y-103500000D03*
%TD*%
%TO.C,H3*%
X153500000Y-153000000D03*
%TD*%
D12*
%TO.C,J10*%
X164230000Y-118250000D03*
D13*
X166770000Y-118250000D03*
X169310000Y-118250000D03*
%TD*%
D12*
%TO.C,J18*%
X172920000Y-124960000D03*
D13*
X175460000Y-124960000D03*
X178000000Y-124960000D03*
%TD*%
D12*
%TO.C,J3*%
X172980000Y-111500000D03*
D13*
X175520000Y-111500000D03*
X178060000Y-111500000D03*
%TD*%
D12*
%TO.C,J21*%
X199170000Y-124960000D03*
D13*
X201710000Y-124960000D03*
X204250000Y-124960000D03*
%TD*%
D12*
%TO.C,J22*%
X207920000Y-124960000D03*
D13*
X210460000Y-124960000D03*
X213000000Y-124960000D03*
%TD*%
D12*
%TO.C,J24*%
X172920000Y-131750000D03*
D13*
X175460000Y-131750000D03*
X178000000Y-131750000D03*
%TD*%
D14*
%TO.C,H2*%
X211500000Y-153000000D03*
%TD*%
D12*
%TO.C,J7*%
X207980000Y-111500000D03*
D13*
X210520000Y-111500000D03*
X213060000Y-111500000D03*
%TD*%
D12*
%TO.C,J26*%
X190420000Y-131730000D03*
D13*
X192960000Y-131730000D03*
X195500000Y-131730000D03*
%TD*%
D12*
%TO.C,J28*%
X207920000Y-131750000D03*
D13*
X210460000Y-131750000D03*
X213000000Y-131750000D03*
%TD*%
D24*
%TO.C,JP1*%
X153900000Y-120800000D03*
D25*
X155200000Y-120800000D03*
D26*
X156500000Y-120800000D03*
%TD*%
M02*
