%TF.GenerationSoftware,KiCad,Pcbnew,(6.0.1)*%
%TF.CreationDate,2022-03-24T21:22:16+00:00*%
%TF.ProjectId,isopod_distro,69736f70-6f64-45f6-9469-7374726f2e6b,rev?*%
%TF.SameCoordinates,Original*%
%TF.FileFunction,Paste,Top*%
%TF.FilePolarity,Positive*%
%FSLAX46Y46*%
G04 Gerber Fmt 4.6, Leading zero omitted, Abs format (unit mm)*
G04 Created by KiCad (PCBNEW (6.0.1)) date 2022-03-24 21:22:16*
%MOMM*%
%LPD*%
G01*
G04 APERTURE LIST*
G04 Aperture macros list*
%AMRoundRect*
0 Rectangle with rounded corners*
0 $1 Rounding radius*
0 $2 $3 $4 $5 $6 $7 $8 $9 X,Y pos of 4 corners*
0 Add a 4 corners polygon primitive as box body*
4,1,4,$2,$3,$4,$5,$6,$7,$8,$9,$2,$3,0*
0 Add four circle primitives for the rounded corners*
1,1,$1+$1,$2,$3*
1,1,$1+$1,$4,$5*
1,1,$1+$1,$6,$7*
1,1,$1+$1,$8,$9*
0 Add four rect primitives between the rounded corners*
20,1,$1+$1,$2,$3,$4,$5,0*
20,1,$1+$1,$4,$5,$6,$7,0*
20,1,$1+$1,$6,$7,$8,$9,0*
20,1,$1+$1,$8,$9,$2,$3,0*%
G04 Aperture macros list end*
%ADD10RoundRect,0.150000X0.150000X-0.587500X0.150000X0.587500X-0.150000X0.587500X-0.150000X-0.587500X0*%
%ADD11RoundRect,0.237500X-0.250000X-0.237500X0.250000X-0.237500X0.250000X0.237500X-0.250000X0.237500X0*%
%ADD12RoundRect,0.237500X-0.300000X-0.237500X0.300000X-0.237500X0.300000X0.237500X-0.300000X0.237500X0*%
%ADD13RoundRect,0.237500X0.237500X-0.250000X0.237500X0.250000X-0.237500X0.250000X-0.237500X-0.250000X0*%
%ADD14RoundRect,0.250000X-0.400000X-0.625000X0.400000X-0.625000X0.400000X0.625000X-0.400000X0.625000X0*%
%ADD15RoundRect,0.237500X0.300000X0.237500X-0.300000X0.237500X-0.300000X-0.237500X0.300000X-0.237500X0*%
%ADD16RoundRect,0.250000X0.350000X0.450000X-0.350000X0.450000X-0.350000X-0.450000X0.350000X-0.450000X0*%
%ADD17RoundRect,0.237500X0.250000X0.237500X-0.250000X0.237500X-0.250000X-0.237500X0.250000X-0.237500X0*%
%ADD18RoundRect,0.250000X-0.350000X-0.450000X0.350000X-0.450000X0.350000X0.450000X-0.350000X0.450000X0*%
%ADD19R,2.750000X3.050000*%
%ADD20R,1.200000X2.200000*%
%ADD21RoundRect,0.180000X-0.180000X-0.295000X0.180000X-0.295000X0.180000X0.295000X-0.180000X0.295000X0*%
%ADD22RoundRect,0.050000X-0.337500X-0.050000X0.337500X-0.050000X0.337500X0.050000X-0.337500X0.050000X0*%
%ADD23RoundRect,0.237500X-0.237500X0.250000X-0.237500X-0.250000X0.237500X-0.250000X0.237500X0.250000X0*%
G04 APERTURE END LIST*
D10*
%TO.C,Q2*%
X152800000Y-116187500D03*
X154700000Y-116187500D03*
X153750000Y-114312500D03*
%TD*%
D11*
%TO.C,R11*%
X152837500Y-112500000D03*
X154662500Y-112500000D03*
%TD*%
D12*
%TO.C,C1*%
X196600000Y-138200000D03*
X198325000Y-138200000D03*
%TD*%
D13*
%TO.C,R12*%
X151112500Y-110475000D03*
X151112500Y-108650000D03*
%TD*%
D10*
%TO.C,Q3*%
X152750000Y-110750000D03*
X154650000Y-110750000D03*
X153700000Y-108875000D03*
%TD*%
D14*
%TO.C,R4*%
X195400000Y-145100000D03*
X198500000Y-145100000D03*
%TD*%
D15*
%TO.C,C5*%
X192900000Y-141500000D03*
X191175000Y-141500000D03*
%TD*%
D11*
%TO.C,R8*%
X171200000Y-136800000D03*
X173025000Y-136800000D03*
%TD*%
D16*
%TO.C,R1*%
X203000000Y-142900000D03*
X201000000Y-142900000D03*
%TD*%
D17*
%TO.C,R5*%
X161575000Y-120000000D03*
X159750000Y-120000000D03*
%TD*%
D12*
%TO.C,C4*%
X201100000Y-140900000D03*
X202825000Y-140900000D03*
%TD*%
D18*
%TO.C,R2*%
X190900000Y-139500000D03*
X192900000Y-139500000D03*
%TD*%
%TO.C,R3*%
X190900000Y-143500000D03*
X192900000Y-143500000D03*
%TD*%
D12*
%TO.C,C3*%
X191075000Y-137500000D03*
X192800000Y-137500000D03*
%TD*%
D15*
%TO.C,C6*%
X192700000Y-145500000D03*
X190975000Y-145500000D03*
%TD*%
D17*
%TO.C,R7*%
X176712500Y-136810000D03*
X174887500Y-136810000D03*
%TD*%
D19*
%TO.C,Q1*%
X160525000Y-109725000D03*
X157475000Y-113075000D03*
X160525000Y-113075000D03*
X157475000Y-109725000D03*
D20*
X156720000Y-117700000D03*
X161280000Y-117700000D03*
%TD*%
D21*
%TO.C,U1*%
X197010000Y-141400000D03*
X197900000Y-140220000D03*
X197900000Y-141400000D03*
X197010000Y-140220000D03*
D22*
X195967500Y-139610000D03*
X195967500Y-140010000D03*
X195967500Y-140410000D03*
X195967500Y-140810000D03*
X195967500Y-141210000D03*
X195967500Y-141610000D03*
X195967500Y-142010000D03*
X198942500Y-142010000D03*
X198942500Y-141610000D03*
X198942500Y-141210000D03*
X198942500Y-140810000D03*
X198942500Y-140410000D03*
X198942500Y-140010000D03*
X198942500Y-139610000D03*
%TD*%
D17*
%TO.C,R14*%
X203012500Y-138900000D03*
X201187500Y-138900000D03*
%TD*%
%TO.C,R16*%
X203300000Y-135900000D03*
X201475000Y-135900000D03*
%TD*%
D11*
%TO.C,R9*%
X152837500Y-118000000D03*
X154662500Y-118000000D03*
%TD*%
D17*
%TO.C,R6*%
X161600000Y-121500000D03*
X159775000Y-121500000D03*
%TD*%
D23*
%TO.C,R10*%
X151200000Y-112575000D03*
X151200000Y-114400000D03*
%TD*%
D17*
%TO.C,R13*%
X206912500Y-136100000D03*
X205087500Y-136100000D03*
%TD*%
D12*
%TO.C,C2*%
X196600000Y-136700000D03*
X198325000Y-136700000D03*
%TD*%
D17*
%TO.C,R15*%
X203012500Y-137400000D03*
X201187500Y-137400000D03*
%TD*%
M02*
